<?xml version="1.0" encoding="utf-8"?><svg xmlns="http://www.w3.org/2000/svg" xmlns:xlink="http://www.w3.org/1999/xlink"><symbol fill="none" viewBox="0 0 30 30" id="arrow_down" xmlns="http://www.w3.org/2000/svg"><path d="M9.262 10.738L15 16.462l5.738-5.724L22.5 12.5 15 20l-7.5-7.5 1.762-1.762z" fill="#000"/></symbol><symbol fill="none" viewBox="0 0 24 24" id="arrow_left" xmlns="http://www.w3.org/2000/svg"><path d="M15.41 16.59L10.83 12l4.58-4.59L14 6l-6 6 6 6 1.41-1.41z" fill="#C4C4C4"/></symbol><symbol fill="none" viewBox="0 0 24 24" id="arrow_right" xmlns="http://www.w3.org/2000/svg"><path d="M8.59 16.59L13.17 12 8.59 7.41 10 6l6 6-6 6-1.41-1.41z" fill="#000"/></symbol><symbol fill="none" viewBox="0 0 25 25" id="arrow_up" xmlns="http://www.w3.org/2000/svg"><path d="M17.281 16.667L12.5 11.896l-4.781 4.77-1.469-1.468 6.25-6.25 6.25 6.25-1.469 1.469z" fill="#000"/></symbol><symbol fill="none" viewBox="0 0 20 20" id="chat" xmlns="http://www.w3.org/2000/svg"><path d="M18 0H2C.9 0 0 .9 0 2v10c0 1.1.9 2 2 2h1v6l6.9-6H18c1.1 0 2-.9 2-2V2c0-1.1-.9-2-2-2zM4 8c-.6 0-1-.5-1-1 0-.6.4-1 1-1s1 .4 1 1c0 .5-.4 1-1 1zm4 0c-.6 0-1-.5-1-1 0-.6.4-1 1-1s1 .4 1 1c0 .5-.4 1-1 1zm4 0c-.6 0-1-.4-1-1s.4-1 1-1 1 .4 1 1c0 .5-.4 1-1 1zm4 0c-.6 0-1-.4-1-1s.4-1 1-1 1 .4 1 1c0 .5-.4 1-1 1z" fill="#000"/></symbol><symbol fill="none" viewBox="0 0 28 24" id="double_arrow_left" xmlns="http://www.w3.org/2000/svg"><path d="M19.41 7.41L14.83 12l4.58 4.59L18 18l-6-6 6-6 1.41 1.41z" fill="#C4C4C4"/><path d="M15.41 7.41L10.83 12l4.58 4.59L14 18l-6-6 6-6 1.41 1.41z" fill="#C4C4C4"/></symbol><symbol fill="none" viewBox="0 0 28 24" id="double_arrow_right" xmlns="http://www.w3.org/2000/svg"><path d="M8.59 16.59L13.17 12 8.59 7.41 10 6l6 6-6 6-1.41-1.41z" fill="#000"/><path d="M12.59 16.59L17.17 12l-4.58-4.59L14 6l6 6-6 6-1.41-1.41z" fill="#000"/></symbol><symbol fill="none" viewBox="0 0 20 20" id="download" xmlns="http://www.w3.org/2000/svg"><path d="M14.944 9.116a.623.623 0 00-.569-.366h-2.5V.625A.625.625 0 0011.25 0h-2.5a.625.625 0 00-.625.625V8.75h-2.5a.626.626 0 00-.47 1.036l4.375 5a.623.623 0 00.94 0l4.375-5a.623.623 0 00.099-.67z" fill="#000"/><path d="M16.875 13.75v3.75H3.125v-3.75h-2.5v5c0 .691.56 1.25 1.25 1.25h16.25c.691 0 1.25-.559 1.25-1.25v-5h-2.5z" fill="#000"/></symbol><symbol fill="none" viewBox="0 0 20 20" id="email" xmlns="http://www.w3.org/2000/svg"><g clip-path="url(#iclip0)" fill="#1E7C24"><path d="M18.242 2.383H1.758c-.27 0-.524.066-.753.176l8.956 8.956 2.008-1.929 7.027-7.027a1.737 1.737 0 00-.754-.176zM19.825 3.388L13.212 10l6.612 6.613c.11-.23.176-.483.176-.754V4.141c0-.27-.066-.524-.175-.753zM.176 3.388C.066 3.617 0 3.87 0 4.14v11.718c0 .27.066.524.176.753L6.789 10 .176 3.388z"/><path d="M12.383 10.829l-2.007 1.929a.584.584 0 01-.829 0l-1.93-1.93-6.612 6.613c.23.11.483.176.753.176h16.485c.27 0 .524-.066.753-.176l-6.613-6.612z"/></g><defs><clipPath id="iclip0"><path fill="#fff" d="M0 0h20v20H0z"/></clipPath></defs></symbol><symbol fill="none" viewBox="0 0 20 20" id="location" xmlns="http://www.w3.org/2000/svg"><g clip-path="url(#jclip0)"><path d="M10 0C5.865 0 2.5 3.388 2.5 7.554c0 5.92 6.795 12.031 7.084 12.288a.624.624 0 00.832 0c.289-.257 7.084-6.369 7.084-12.288C17.5 3.388 14.135 0 10 0zm0 11.667A4.171 4.171 0 015.833 7.5 4.171 4.171 0 0110 3.333 4.171 4.171 0 0114.167 7.5 4.171 4.171 0 0110 11.667z" fill="#1E7C24"/></g><defs><clipPath id="jclip0"><path fill="#fff" d="M0 0h20v20H0z"/></clipPath></defs></symbol><symbol fill="none" viewBox="0 0 20 20" id="phone" xmlns="http://www.w3.org/2000/svg"><g clip-path="url(#kclip0)"><path d="M19.455 14.678l-2.79-2.791c-.998-.997-2.692-.598-3.091.698-.299.897-1.296 1.395-2.193 1.196-1.994-.498-4.685-3.09-5.183-5.184-.3-.897.299-1.894 1.196-2.193 1.296-.398 1.694-2.093.698-3.09L5.3.524c-.797-.698-1.993-.698-2.69 0L.714 2.416C-1.179 4.411.915 9.694 5.6 14.38c4.684 4.685 9.968 6.878 11.961 4.884l1.894-1.894c.698-.797.698-1.993 0-2.691z" fill="#000"/></g><defs><clipPath id="kclip0"><path fill="#fff" d="M0 0h20v20H0z"/></clipPath></defs></symbol><symbol fill="none" viewBox="0 0 20 20" id="search" xmlns="http://www.w3.org/2000/svg"><path d="M19.825 18.98l-4.86-4.86a8.494 8.494 0 002.092-5.592C17.057 3.823 13.23 0 8.53 0 3.825 0 .002 3.827.002 8.528c0 4.7 3.827 8.527 8.528 8.527 2.137 0 4.093-.789 5.592-2.093l4.86 4.86a.584.584 0 00.843 0 .6.6 0 000-.842zM1.195 8.528c0-4.045 3.29-7.33 7.33-7.33 4.045 0 7.33 3.29 7.33 7.33s-3.285 7.335-7.33 7.335c-4.04 0-7.33-3.29-7.33-7.335z" fill="#1E7C24"/></symbol><symbol fill="none" viewBox="0 0 70 70" id="services--0" xmlns="http://www.w3.org/2000/svg"><g clip-path="url(#mclip0)" fill="#000"><path d="M32.667 22.2a1.166 1.166 0 11-2.332-.001 1.166 1.166 0 012.332 0zM23.338 34.758a10.874 10.874 0 015.28-9.813 1.166 1.166 0 10-1.047-2.085 13.176 13.176 0 00-6.566 11.898 1.166 1.166 0 102.333 0z"/><path d="M.952 41.98a1.18 1.18 0 001.247-.46 6.453 6.453 0 013.977-2.11c.03.198.061.389.095.574-4.748 4.152-2.94 10.85-1.247 13.916a1.165 1.165 0 002.163-.333 6.55 6.55 0 012.859-3.47c.103.173.206.34.308.5-2.782 5.652 1.428 11.147 4.15 13.328.065.047.134.087.206.119.086.044.177.076.272.096.06.017.122.029.184.036.024.001.046.014.071.014a1.22 1.22 0 00.163-.032 1.09 1.09 0 00.37-.117c.017-.01.036-.012.052-.021.033-.024.065-.05.095-.077.051-.029.1-.061.147-.098.013-.013.017-.032.03-.046.08-.088.147-.189.196-.297.024-.06.043-.123.056-.186.02-.07.034-.143.04-.216a1.071 1.071 0 00-.002-.17c-.002-.037.006-.072 0-.108a6.524 6.524 0 011.33-4.326c.151.11.305.221.462.332-.442 6.541 6.03 9.877 8.83 10.692l.025.007c.038.011.081.027.117.036.047.01.096.015.144.017.054.015.11.026.166.033.2-.006.397-.065.568-.171.052-.028.102-.06.149-.095.028-.023.063-.032.09-.058.023-.03.044-.06.064-.092.016-.019.038-.032.053-.052l.16-.29c.044-.115.07-.235.076-.357a1.938 1.938 0 00-.16-.654 6.622 6.622 0 01-.44-4.507c.186.046.377.09.57.132 1.76 5.21 7.215 6.557 10.889 6.557.495.002.99-.025 1.484-.079a1.166 1.166 0 00.519-2.127 6.515 6.515 0 01-2.094-3.969c.197-.03.388-.061.573-.094 4.16 4.75 10.855 2.949 13.915 1.259.421-.236.653-.706.583-1.184a1.176 1.176 0 00-.9-.977 6.467 6.467 0 01-3.476-2.88c.16-.097.321-.198.487-.303 5.652 2.787 11.15-1.425 13.331-4.148a1.14 1.14 0 00.223-.51 1.18 1.18 0 00.028-.167 1.281 1.281 0 00-.14-.605c-.007-.012-.008-.024-.015-.036a1.211 1.211 0 00-.083-.103 1.123 1.123 0 00-.112-.16 1.127 1.127 0 00-.126-.078 1.174 1.174 0 00-.216-.135 1.592 1.592 0 00-.404-.09 1.076 1.076 0 00-.17.003c-.028.003-.056-.004-.084.001a6.538 6.538 0 01-4.33-1.33c.11-.15.22-.304.331-.46 7.567.545 10.39-7.84 10.703-8.862.008-.02.012-.04.018-.061l.015-.049c.009-.048.015-.096.017-.144.02-.136.016-.274-.013-.408a1.19 1.19 0 00-.034-.15 1.161 1.161 0 00-.099-.195 1.173 1.173 0 00-.108-.152 1.074 1.074 0 00-.077-.11c-.022-.021-.05-.028-.073-.046-.011-.009-.017-.021-.029-.03a1.923 1.923 0 00-.41-.19 1.16 1.16 0 00-.27-.045 1.585 1.585 0 00-.408.07 1.102 1.102 0 00-.135.055c-.026.013-.054.017-.078.032a6.65 6.65 0 01-4.509.44c.047-.186.09-.377.133-.57 5.975-2.016 6.869-8.895 6.478-12.373a1.165 1.165 0 00-.872-.992 1.18 1.18 0 00-1.247.46 6.453 6.453 0 01-3.977 2.11c-.03-.198-.061-.39-.095-.575 4.75-4.159 2.95-10.853 1.26-13.915a1.158 1.158 0 00-1.186-.582c-.48.07-.868.428-.975.901a6.472 6.472 0 01-2.873 3.485 35.131 35.131 0 00-.31-.5c2.798-5.66-1.43-11.158-4.165-13.341a1.166 1.166 0 00-1.872 1.137 6.526 6.526 0 01-1.323 4.305l-.462-.332c.44-6.536-6.02-9.872-8.823-10.69l-.02-.007c-.041-.011-.09-.029-.13-.04-.034-.009-.07-.005-.105-.01a1.13 1.13 0 00-.839.168c-.018.011-.036.02-.052.033-.044.024-.086.05-.126.08-.033.04-.063.083-.09.127-.006.008-.015.013-.021.021-.011.015-.016.032-.026.047a1.131 1.131 0 00-.191.821c.005.05.013.1.025.15.02.064.044.125.075.184.015.034.022.069.04.1.672 1.404.828 3 .44 4.507-.185-.045-.376-.09-.57-.132C39.395.611 32.514-.283 29.04.108a1.167 1.167 0 00-.52 2.126 6.516 6.516 0 012.096 3.969c-.197.03-.389.062-.574.094-4.16-4.749-10.855-2.95-13.915-1.259a1.163 1.163 0 00-.582 1.185c.07.48.428.868.901.976a6.476 6.476 0 013.487 2.873c-.174.103-.34.206-.5.309-5.66-2.798-11.159 1.43-13.343 4.163A1.17 1.17 0 007.21 16.42a6.462 6.462 0 014.321 1.321c-.11.152-.22.305-.331.462-7.558-.53-10.39 7.846-10.703 8.86-.009.022-.012.044-.02.066l-.013.043a1.06 1.06 0 00-.014.116c-.036.187-.025.379.032.56l.002.006a1.11 1.11 0 00.179.328c.032.056.069.108.11.157.216.207.504.322.804.322a1.14 1.14 0 00.175-.035 1.099 1.099 0 00.352-.108c.025-.013.052-.016.076-.03a6.679 6.679 0 014.51-.441c-.047.186-.091.376-.134.57C.583 30.632-.31 37.51.08 40.989c.057.48.404.874.872.991zM7.85 30.664c.438-.113.772-.468.857-.911.14-.745.32-1.482.54-2.207a1.169 1.169 0 00-.777-1.46 11.313 11.313 0 00-4.857-.458c1.2-2.338 3.698-5.653 7.995-5.038.443.059.882-.137 1.134-.508.444-.666.884-1.267 1.346-1.836.404-.499.33-1.23-.166-1.638a11.264 11.264 0 00-4.323-2.277c2.015-1.694 5.587-3.785 9.3-1.59.389.232.877.216 1.25-.04.57-.39 1.192-.768 1.957-1.19.56-.307.767-1.009.465-1.572a11.227 11.227 0 00-3.137-3.767c2.505-.81 6.592-1.385 9.212 2.103.274.362.732.533 1.175.44a24.16 24.16 0 012.258-.354 1.166 1.166 0 001.028-1.276 11.29 11.29 0 00-1.442-4.65c2.623.224 6.632 1.266 7.7 5.441.111.438.466.77.909.856.746.14 1.483.32 2.208.54a1.164 1.164 0 001.46-.777 11.29 11.29 0 00.46-4.856c2.339 1.2 5.65 3.69 5.036 7.994-.062.444.135.885.508 1.134.674.45 1.274.89 1.835 1.346.499.405 1.23.33 1.637-.166A11.238 11.238 0 0055.7 9.604c1.707 2.004 3.806 5.563 1.586 9.319-.232.39-.215.879.04 1.254.391.568.768 1.19 1.19 1.954.308.56 1.01.768 1.573.466a11.244 11.244 0 003.755-3.122c.795 2.51 1.356 6.606-2.091 9.197-.362.273-.534.73-.44 1.174.14.66.256 1.399.355 2.26a1.16 1.16 0 001.276 1.026 11.314 11.314 0 004.65-1.441c-.223 2.624-1.265 6.63-5.441 7.699a1.168 1.168 0 00-.857.911c-.14.745-.32 1.482-.54 2.207a1.166 1.166 0 00.777 1.46c1.567.505 3.224.661 4.857.459-1.2 2.338-3.693 5.65-7.995 5.037a1.17 1.17 0 00-1.134.508 24.205 24.205 0 01-1.346 1.836 1.165 1.165 0 00.167 1.638 11.295 11.295 0 004.344 2.283c-1.995 1.704-5.55 3.805-9.323 1.581a1.165 1.165 0 00-1.24.035c-.71.474-1.343.859-1.94 1.177a1.166 1.166 0 00-.48 1.58 11.272 11.272 0 003.133 3.777c-2.506.81-6.598 1.39-9.219-2.1a1.165 1.165 0 00-1.175-.441c-.66.14-1.378.253-2.26.355a1.166 1.166 0 00-1.026 1.276 11.288 11.288 0 001.451 4.667c-2.622-.207-6.627-1.234-7.708-5.459a1.167 1.167 0 00-.912-.856 20.46 20.46 0 01-2.206-.54 1.167 1.167 0 00-1.46.778 11.293 11.293 0 00-.46 4.857c-2.339-1.2-5.65-3.69-5.037-7.994a1.168 1.168 0 00-.507-1.135 24.11 24.11 0 01-1.835-1.346 1.165 1.165 0 00-1.638.166 11.313 11.313 0 00-2.287 4.343c-1.704-1.995-3.802-5.548-1.58-9.321.23-.39.214-.878-.041-1.252-.391-.569-.768-1.19-1.19-1.955a1.166 1.166 0 00-1.574-.465 11.217 11.217 0 00-3.756 3.137c-.813-2.504-1.396-6.596 2.093-9.212.363-.272.535-.73.441-1.174-.14-.66-.256-1.4-.356-2.26a1.166 1.166 0 00-1.276-1.026 11.306 11.306 0 00-4.65 1.441c.223-2.624 1.265-6.63 5.441-7.699z"/><path d="M35 54.852c10.949 0 19.825-8.876 19.825-19.825 0-10.95-8.876-19.825-19.825-19.825-10.95 0-19.825 8.876-19.825 19.825.012 10.944 8.88 19.813 19.825 19.825zm0-37.317c9.66 0 17.492 7.83 17.492 17.492 0 9.661-7.831 17.493-17.492 17.493-9.661 0-17.493-7.832-17.493-17.493.01-9.656 7.836-17.482 17.493-17.492z"/><path d="M35 42.024a6.997 6.997 0 100-13.994 6.997 6.997 0 00-6.997 6.997A7.005 7.005 0 0035 42.024zm0-11.661a4.665 4.665 0 110 9.329 4.665 4.665 0 010-9.33zM40.864 46.134c.288.576.988.81 1.564.522a13.174 13.174 0 006.566-11.898 1.166 1.166 0 00-2.333 0 10.872 10.872 0 01-5.28 9.813c-.573.29-.805.988-.517 1.563z"/></g><defs><clipPath id="mclip0"><path fill="#fff" d="M0 0h70v70H0z"/></clipPath></defs></symbol><symbol fill="none" viewBox="0 0 70 70" id="services--1" xmlns="http://www.w3.org/2000/svg"><path d="M69.979 36.062a1.107 1.107 0 00-.046-.228 1.123 1.123 0 00-.089-.217c-.017-.031-.02-.067-.04-.098-.022-.032-.055-.048-.079-.078a1.155 1.155 0 00-.783-.42 1.093 1.093 0 00-.109-.021H46.667V1.167c0-.037-.018-.068-.021-.105a1.127 1.127 0 00-.047-.228 1.13 1.13 0 00-.088-.217c-.018-.031-.02-.067-.04-.098-.022-.032-.055-.049-.08-.078a1.197 1.197 0 00-.35-.29 1.197 1.197 0 00-.437-.13C45.568.018 45.537 0 45.5 0h-9.333c-.035 0-.065.017-.1.02a1.23 1.23 0 00-.449.135c-.032.018-.068.02-.099.041L.52 23.53c-.032.022-.049.055-.078.08a1.154 1.154 0 00-.419.782c-.01.035-.017.072-.022.109v44.333C0 69.478.522 70 1.167 70H33.834a1.16 1.16 0 00.52-.136 1.08 1.08 0 00.126-.06l35-23.333c.032-.022.05-.055.079-.08.118-.096.216-.214.289-.348.07-.135.114-.282.13-.433A1.08 1.08 0 0070 45.5v-9.333c0-.037-.018-.069-.021-.105zM36.519 2.333h5.128l-31.5 21H5.02l31.5-21zm7.814 1.014v32.195L11.667 57.32V25.124L44.333 3.347zm-11.666 64.32H2.333v-42h7V59.5c0 .037.018.068.021.104.017.156.063.307.135.445.017.032.02.068.04.098.036.048.075.093.117.134.017.02.03.04.05.058.094.09.203.163.322.217.025.011.05.019.076.029.13.05.266.078.405.081H32.666v7zm.813-9.334H14.353l31.5-21H64.98l-31.5 21zm34.187-13.457L35 66.653v-6.529l32.667-21.778v6.53z" fill="#000"/></symbol><symbol fill="none" viewBox="0 0 70 70" id="services--2" xmlns="http://www.w3.org/2000/svg"><g clip-path="url(#oclip0)" fill="#000"><path d="M56.869 13.143a3.894 3.894 0 002.821 1.096 7.36 7.36 0 005.015-2.334 37.921 37.921 0 004.96-7.791A2.899 2.899 0 0069.24.77 2.898 2.898 0 0065.9.347a37.97 37.97 0 00-7.793 4.96c-2.544 2.544-3.087 5.985-1.237 7.835zm2.886-6.186a36.204 36.204 0 017.117-4.49c.147-.074.31-.115.474-.121a.347.347 0 01.245.074c.095.093.12.359-.046.72a36.231 36.231 0 01-4.49 7.115c-1.701 1.703-3.758 2.017-4.537 1.237-.78-.779-.463-2.834 1.237-4.535zM32.674 23.342a2.336 2.336 0 002.333-2.333v-9.332a2.336 2.336 0 00-2.333-2.333H9.344a2.335 2.335 0 00-2.332 2.333v9.332a2.336 2.336 0 002.333 2.333h23.329zM20.288 11.677l-4.666 9.332h-3.224l4.667-9.332h3.223zm12.387 9.332H18.231l4.666-9.332h9.777l.001 9.332zm-23.33-9.332h5.11L9.79 21.01h-.445v-9.332zM22.176 43.171a1.167 1.167 0 11-2.334 0 1.167 1.167 0 012.334 0zM39.113 51.837a1.166 1.166 0 11-2.333 0 1.166 1.166 0 012.333 0zM42.848 30.464a1.166 1.166 0 10-1.648-1.65 1.166 1.166 0 001.648 1.65zM22.176 38.506a1.166 1.166 0 11-2.333 0 1.166 1.166 0 012.333 0z"/><path d="M15.177 52.839V66.5A3.503 3.503 0 0018.676 70h4.666a3.503 3.503 0 003.5-3.5V52.837a20.418 20.418 0 004.992-2.185l-.003.02v2.332c-.002.618.244 1.21.68 1.648L46.73 68.974a3.498 3.498 0 004.95 0l3.299-3.299a3.5 3.5 0 00.011-4.937l-3.846-3.952.827-.826a2.338 2.338 0 00-.001-3.298l-4.95-4.949c.91-.911.91-2.388 0-3.3l-2.033-2.032a2.326 2.326 0 00-2.107-.638l-3.168.633c-.04.008-.073.03-.112.04a21.196 21.196 0 002.03-5.785l16.065-16.065a3.503 3.503 0 000-4.949l-3.299-3.299a3.582 3.582 0 00-4.948 0l-7.442 7.442v-8.083C41.998 5.237 36.78.02 30.341.012H11.677C5.238.02.02 5.238.013 11.677v20.996A20.99 20.99 0 0015.177 52.84zM24.508 66.5c0 .644-.523 1.165-1.166 1.166h-4.666a1.167 1.167 0 01-1.166-1.166V37.339a3.5 3.5 0 016.998 0V66.5zm16.69-42.636l4.95 4.95-6.76 6.76-1.856-8.042 3.667-3.668zm-4.372 18.667a3.494 3.494 0 01.248-4.645l.669-.669c.277.282.622.488 1 .599.066.019.132.015.198.028a18.948 18.948 0 01-2.115 4.687zm-.003-7.693l-1.398 1.398a5.84 5.84 0 000 8.248l.812.813-1.65 1.65-.812-.813a8.174 8.174 0 010-11.547l2.43-2.43.618 2.68zm3.348 9.824l3.165-.633 2.034 2.033a2.335 2.335 0 000 3.3l4.95 4.948-.828.827a2.335 2.335 0 00-.01 3.287l3.846 3.952a1.169 1.169 0 010 1.65l-3.299 3.298c-.46.44-1.184.44-1.646.003L34.164 53.003V50.67l1.228-1.228c.008-.007.017-.009.025-.016.006-.007.009-.017.016-.024l3.26-3.26c.006-.006.016-.008.022-.015.007-.007.01-.017.016-.024l1.44-1.44zm10.926-30.696a1.163 1.163 0 011.649 0l3.299 3.3a1.169 1.169 0 010 1.65l-8.248 8.248-4.949-4.949 8.25-8.249zm-48.751-2.29a9.342 9.342 0 019.331-9.332h18.664a9.342 9.342 0 019.331 9.332v10.416l-3.789 3.79a2.314 2.314 0 00-.625 2.174l.328 1.42-3.46 3.461c-4.065 4.075-4.095 10.66-.069 14.772-.383.281-.774.549-1.174.798a18.13 18.13 0 01-4.042 1.906V37.339a5.832 5.832 0 00-11.664 0v13.063A18.671 18.671 0 012.346 32.673V11.677z"/></g><defs><clipPath id="oclip0"><path fill="#fff" d="M0 0h70v70H0z"/></clipPath></defs></symbol><symbol fill="none" viewBox="0 0 70 70" id="services--3" xmlns="http://www.w3.org/2000/svg"><path d="M65.625 9.844h-10.18l-3.015-8.04a1.093 1.093 0 00-1.024-.71h-8.75c-.456 0-.864.283-1.025.71l-3.014 8.04h-10.18a3.285 3.285 0 00-3.28 3.281V52.5H20.78a3.285 3.285 0 01-3.281-3.281V38.17a5.478 5.478 0 004.375-5.358V16.405a2.19 2.19 0 00-2.188-2.187V9.844c0-4.222-3.435-7.656-7.656-7.656H9.844A1.091 1.091 0 008.57 1.109L2.007 2.203a1.093 1.093 0 00-.913 1.078v4.375c0 .535.387.991.914 1.079l6.563 1.093A1.091 1.091 0 009.844 8.75h1.094a2.19 2.19 0 012.187 2.188v3.28a2.19 2.19 0 00-2.188 2.188h-3.28c-.606 0-1.095.49-1.095 1.094v3.281c0 .248.085.49.24.684l4.136 5.169v6.178c0 2.64 1.882 4.85 4.374 5.359v11.048a5.475 5.475 0 005.47 5.468h4.374v4.376a3.278 3.278 0 002.454 3.161l1.977 5.934c.15.448.567.748 1.038.748H35c.471 0 .888-.3 1.037-.748l1.938-5.814h18.112l1.939 5.814c.148.448.565.748 1.036.748h4.376c.47 0 .888-.3 1.036-.748l1.978-5.934a3.277 3.277 0 002.454-3.161V13.124a3.285 3.285 0 00-3.281-3.281zM7.656 7.458L3.281 6.73V4.208l4.375-.73v3.98zm3.282-.896H9.844V4.376h2.187A5.475 5.475 0 0117.5 9.844v4.375h-2.188v-3.281a4.38 4.38 0 00-4.374-4.376zm8.75 9.844V31.72h-6.563V16.406h6.563zM8.75 20.397v-1.803h2.188v4.538L8.75 20.397zm4.576 13.51h6.16a3.277 3.277 0 01-3.08 2.187 3.275 3.275 0 01-3.08-2.188zM43.414 3.28h7.233l2.461 6.563H40.953l2.461-6.563zM34.211 66.72h-2.798l-1.46-4.375h5.716l-1.458 4.375zm28.438 0H59.85l-1.46-4.375h5.717l-1.458 4.375zm4.07-7.656c0 .602-.49 1.093-1.094 1.093H28.437a1.095 1.095 0 01-1.093-1.093v-4.376h2.343c.488 1.882 2.186 3.282 4.22 3.282a4.38 4.38 0 004.374-4.375 4.38 4.38 0 00-4.375-4.375c-2.033 0-3.73 1.4-4.22 3.281h-2.342V13.125c0-.603.49-1.094 1.093-1.094h37.188c.604 0 1.094.491 1.094 1.094v45.938zM32.023 52.5a2.18 2.18 0 011.883-1.094 2.19 2.19 0 012.188 2.188 2.19 2.19 0 01-2.188 2.187 2.18 2.18 0 01-1.883-1.093h1.883V52.5h-1.883z" fill="#000"/><path d="M30.625 22.969h10.938c.604 0 1.093-.49 1.093-1.094v-6.563c0-.603-.489-1.093-1.093-1.093H30.624c-.605 0-1.094.49-1.094 1.094v6.562c0 .604.49 1.094 1.094 1.094zm1.094-6.563h8.75v4.375h-8.75v-4.375zM30.625 33.906h10.938c.604 0 1.093-.49 1.093-1.093V26.25c0-.604-.489-1.094-1.093-1.094H30.624c-.605 0-1.094.49-1.094 1.094v6.563c0 .603.49 1.093 1.094 1.093zm1.094-6.562h8.75v4.375h-8.75v-4.375zM33.906 38.281a4.38 4.38 0 00-4.375 4.375 4.38 4.38 0 004.375 4.375 4.38 4.38 0 004.375-4.375 4.38 4.38 0 00-4.375-4.375zm0 6.563a2.19 2.19 0 01-2.187-2.188 2.19 2.19 0 012.187-2.187 2.19 2.19 0 012.188 2.187 2.19 2.19 0 01-2.188 2.188zM63.438 38.281H41.561c-.604 0-1.093.49-1.093 1.094v17.5c0 .604.489 1.094 1.093 1.094h21.876c.604 0 1.093-.49 1.093-1.094v-17.5c0-.604-.489-1.094-1.094-1.094zm-1.094 2.188v2.187H42.656V40.47h19.688zM42.656 47.03v-2.187h19.688v2.187H42.656zm19.688 2.188v2.187H42.656V49.22h19.688zM42.656 55.78v-2.187h19.688v2.187H42.656zM56.875 20.781c-4.22 0-7.656 3.435-7.656 7.657 0 4.221 3.435 7.656 7.656 7.656 4.22 0 7.656-3.435 7.656-7.657 0-4.221-3.435-7.656-7.656-7.656zm0 13.125a5.475 5.475 0 01-5.469-5.468 5.475 5.475 0 015.469-5.47 5.475 5.475 0 015.469 5.47 5.475 5.475 0 01-5.469 5.468z" fill="#000"/><path d="M56.875 25.156a3.285 3.285 0 00-3.281 3.282 3.285 3.285 0 003.281 3.28 3.285 3.285 0 003.281-3.28 3.285 3.285 0 00-3.281-3.282zm0 4.375a1.095 1.095 0 010-2.187 1.095 1.095 0 010 2.187zM62.344 14.219h2.187v2.187h-2.187V14.22zM57.969 14.219h2.187v2.187H57.97V14.22zM53.594 14.219h2.187v2.187h-2.187V14.22zM49.219 14.219h2.187v2.187H49.22V14.22zM15.313 18.594H17.5v2.187h-2.188v-2.187z" fill="#000"/></symbol><symbol fill="none" viewBox="0 0 70 70" id="services--4" xmlns="http://www.w3.org/2000/svg"><g clip-path="url(#qclip0)" fill="#000"><path d="M22.478 36.646a1.167 1.167 0 00-.583 2.26 12.851 12.851 0 019.212 9.228 1.167 1.167 0 002.26-.579 15.187 15.187 0 00-10.889-10.91zM26.977 32.082a1.167 1.167 0 10-.583 2.26 12.851 12.851 0 019.212 9.228 1.167 1.167 0 002.26-.579 15.187 15.187 0 00-10.889-10.91zM31.476 27.517a1.167 1.167 0 10-.583 2.26 12.85 12.85 0 019.211 9.229 1.167 1.167 0 002.261-.58 15.187 15.187 0 00-10.889-10.909zM35.974 22.953a1.167 1.167 0 10-.583 2.26 12.851 12.851 0 019.212 9.228 1.167 1.167 0 002.26-.579 15.187 15.187 0 00-10.889-10.91zM40.474 18.389a1.167 1.167 0 10-.583 2.26 12.85 12.85 0 019.212 9.228 1.167 1.167 0 002.26-.579 15.187 15.187 0 00-10.889-10.91zM44.972 13.824a1.167 1.167 0 10-.583 2.26 12.85 12.85 0 019.212 9.229 1.168 1.168 0 002.26-.579 15.187 15.187 0 00-10.889-10.91zM49.471 9.26a1.166 1.166 0 10-.583 2.26 12.851 12.851 0 019.212 9.228 1.168 1.168 0 002.26-.579A15.186 15.186 0 0049.471 9.26zM64.86 15.605a15.186 15.186 0 00-10.89-10.91 1.167 1.167 0 10-.583 2.26 12.851 12.851 0 019.212 9.23 1.168 1.168 0 002.051.425 1.17 1.17 0 00.21-1.005z"/><path d="M65.557 4.448c-5.918-5.918-15.512-5.924-21.438-.014L4.446 44.107a15.162 15.162 0 0010.726 25.888A15.122 15.122 0 0025.9 65.559L65.57 25.886c5.91-5.926 5.904-15.52-.014-21.438zM20.084 66.691A12.836 12.836 0 016.096 63.91a12.798 12.798 0 010-18.152 12.835 12.835 0 1113.988 20.935zm43.837-42.455L29.938 58.22a15.126 15.126 0 00-18.152-18.153L45.769 6.084c5.013-5.013 13.14-5.013 18.152 0 5.013 5.013 5.013 13.14 0 18.152z"/><path d="M11.154 45.13a10.502 10.502 0 00-6.483 9.703c.007 5.797 4.704 10.495 10.502 10.502a10.502 10.502 0 10-4.02-20.204zM15.172 63a8.168 8.168 0 01-8.167-8.167 8.177 8.177 0 018.168-8.168 8.168 8.168 0 010 16.336z"/></g><defs><clipPath id="qclip0"><path fill="#fff" d="M0 0h70v70H0z"/></clipPath></defs></symbol><symbol fill="none" viewBox="0 0 70 70" id="services--5" xmlns="http://www.w3.org/2000/svg"><path d="M64.531 14.219h-2.187V12.03a1.094 1.094 0 00-1.094-1.094h-2.188V8.75a1.093 1.093 0 00-1.093-1.094h-52.5A1.094 1.094 0 004.375 8.75v2.188H2.187a1.093 1.093 0 00-1.093 1.093v6.563a1.094 1.094 0 001.093 1.093h2.188v2.188a1.094 1.094 0 001.094 1.094h2.187v7.656a3.282 3.282 0 004.375 3.094v3.468a3.282 3.282 0 006.563 0V28.25a3.282 3.282 0 004.375-3.094V22.97h35a1.094 1.094 0 001.093-1.094v-2.188h2.188a1.093 1.093 0 001.094-1.093v-2.188h2.187a2.19 2.19 0 012.188 2.188v8.75a2.19 2.19 0 01-2.188 2.187H35a1.094 1.094 0 00-1.094 1.094V35h-1.093a1.093 1.093 0 00-1.094 1.094v2.187a1.094 1.094 0 00-1.094 1.094v26.25a3.286 3.286 0 003.281 3.281h2.188a3.285 3.285 0 003.281-3.281v-26.25a1.093 1.093 0 00-1.094-1.094v-2.187A1.094 1.094 0 0037.188 35h-1.094v-3.281H64.53a4.38 4.38 0 004.375-4.375v-8.75a4.38 4.38 0 00-4.375-4.375zM4.375 17.5H3.281v-4.375h1.094V17.5zm52.5 3.281h-35a1.094 1.094 0 00-1.094 1.094v3.281a1.094 1.094 0 11-2.187 0 1.094 1.094 0 00-2.188 0v12.032a1.094 1.094 0 11-2.187 0v-6.563a1.094 1.094 0 00-2.188 0 1.094 1.094 0 11-2.187 0v-8.75a1.094 1.094 0 00-1.094-1.094H6.562V9.844h50.313V20.78zm3.281-3.281h-1.093v-4.375h1.093V17.5zm-26.25 19.688h2.188v1.093h-2.188v-1.093zm3.282 3.28v25.157a1.096 1.096 0 01-1.094 1.094h-2.188a1.095 1.095 0 01-1.093-1.094V40.469h4.374z" fill="#000"/><path d="M13.125 20.781a1.094 1.094 0 00-1.094 1.094v5.469a1.094 1.094 0 002.188 0v-5.469a1.094 1.094 0 00-1.094-1.094zM17.5 19.688a1.093 1.093 0 00-1.094 1.093v1.094a1.094 1.094 0 002.188 0v-1.094a1.094 1.094 0 00-1.094-1.093z" fill="#000"/></symbol><symbol fill="none" viewBox="0 0 70 70" id="services--6" xmlns="http://www.w3.org/2000/svg"><g clip-path="url(#sclip0)" fill="#000"><path d="M64.167 0h-56A8.176 8.176 0 000 8.167v56A5.84 5.84 0 005.833 70h28a2.336 2.336 0 002.334-2.333V52.983l16.816-16.816h14.684A2.336 2.336 0 0070 33.833v-28A5.84 5.84 0 0064.167 0zM33.833 67.667h-12.35l12.35-12.35v12.35zm33.834-33.834h-12.35l12.35-12.35v12.35zm0-17.1a3.524 3.524 0 01-1.026 2.475L51.675 34.175 34.177 51.674l-.003.003-14.965 14.965a3.479 3.479 0 01-2.476 1.025h-10.9a3.504 3.504 0 01-3.5-3.5v-56a5.84 5.84 0 015.834-5.834h56a3.504 3.504 0 013.5 3.5v10.9z"/><path d="M12.833 7A5.833 5.833 0 007 12.833a5.84 5.84 0 005.833 5.834 5.833 5.833 0 100-11.667zm0 9.333a3.5 3.5 0 110-7 3.5 3.5 0 010 7zM12.833 51.333a5.833 5.833 0 000 11.667 5.84 5.84 0 005.834-5.833 5.833 5.833 0 00-5.834-5.834zm0 9.334a3.5 3.5 0 110-7 3.5 3.5 0 010 7zM57.166 7a5.833 5.833 0 00-5.833 5.833 5.84 5.84 0 005.833 5.834 5.833 5.833 0 100-11.667zm0 9.333a3.5 3.5 0 110-7 3.5 3.5 0 010 7z"/></g><defs><clipPath id="sclip0"><path fill="#fff" d="M0 0h70v70H0z"/></clipPath></defs></symbol><symbol fill="none" viewBox="0 0 70 70" id="services--7" xmlns="http://www.w3.org/2000/svg"><g clip-path="url(#tclip0)" fill="#000"><path d="M5.835 40.833c.644 0 1.166-.523 1.166-1.167V14a1.167 1.167 0 00-2.333 0v25.666c0 .645.522 1.167 1.167 1.167zM5.835 10.5C6.479 10.5 7 9.978 7 9.333V7a1.167 1.167 0 00-2.333 0v2.333c0 .645.522 1.167 1.167 1.167zM35 23.333a4.666 4.666 0 100 9.333 4.666 4.666 0 000-9.333zm0 7a2.333 2.333 0 110-4.667 2.333 2.333 0 010 4.667z"/><path d="M47.852 23.329h-.015l-2.145-.001c-.35-.796-.785-1.551-1.3-2.252l1.078-1.87a2.348 2.348 0 00-.87-3.175l-4.028-2.323a2.305 2.305 0 00-1.764-.245c-.6.158-1.114.548-1.428 1.084L36.3 16.41a11.546 11.546 0 00-2.602.002l-1.073-1.86a2.337 2.337 0 00-3.187-.854l-4.04 2.334a2.337 2.337 0 00-.856 3.187l1.074 1.859c-.517.7-.954 1.455-1.302 2.252l-2.155.003a2.348 2.348 0 00-1.652.696 2.293 2.293 0 00-.67 1.637l-.002 4.658a2.35 2.35 0 002.329 2.346l2.145.002a11.851 11.851 0 001.3 2.251l-1.08 1.872a2.348 2.348 0 00.872 3.173l4.026 2.322a2.305 2.305 0 001.766.245 2.346 2.346 0 001.429-1.083l1.079-1.863c.865.097 1.737.097 2.602-.002l1.072 1.86a2.35 2.35 0 002.027 1.166c.408 0 .809-.108 1.161-.313l4.04-2.333a2.337 2.337 0 00.856-3.187l-1.073-1.86a11.6 11.6 0 001.3-2.251l2.156-.003a2.344 2.344 0 001.651-.696 2.295 2.295 0 00.67-1.637l.003-4.658a2.348 2.348 0 00-2.314-2.346zm-2.963 7.008a1.167 1.167 0 00-1.1.785 9.188 9.188 0 01-1.697 2.936 1.167 1.167 0 00-.124 1.343l1.47 2.545-4.042 2.334-1.47-2.546a1.167 1.167 0 00-1.225-.564 9.23 9.23 0 01-3.392.001 1.163 1.163 0 00-1.229.561l-1.475 2.544-4.047-2.33 1.468-2.544c.247-.43.197-.969-.126-1.344a9.38 9.38 0 01-1.696-2.938 1.167 1.167 0 00-1.1-.781l-2.935-.009-.005-4.664 2.948-.004c.497 0 .938-.316 1.1-.785a9.171 9.171 0 011.697-2.936c.322-.376.372-.914.125-1.342l-1.47-2.546 4.04-2.334 1.47 2.546c.247.43.739.656 1.225.564a9.169 9.169 0 013.393-.002c.487.094.98-.13 1.23-.56l1.475-2.545 4.046 2.331-1.468 2.545c-.248.429-.198.967.125 1.343a9.375 9.375 0 011.698 2.939c.164.467.605.78 1.1.78l2.934.002.005 4.67-2.948.005z"/><path d="M69.996 12.58A6.981 6.981 0 0063 5.832H16.334v-3.5A2.336 2.336 0 0014.001 0h-7a6.982 6.982 0 00-7 7v50.17a7.241 7.241 0 006.907 6.976c.032.003.06.02.093.02h.805l1.727 3.784c.087.188.19.367.31.536.037.054.078.104.119.156.087.112.18.219.28.32.05.049.097.098.149.145.144.13.297.247.46.351.037.023.077.04.114.06.14.082.287.154.437.215.031.013.059.032.09.044.039.014.079.02.118.032.113.038.228.069.344.095.072.016.143.035.215.047.148.023.297.036.447.04.034 0 .069.009.103.009.5 0 .995-.109 1.45-.317l12.096-5.518h27.402v3.5A2.335 2.335 0 0056 70h7a7.008 7.008 0 007-7V12.833c0-.014-.008-.025-.008-.039 0-.072.006-.143.004-.215zM3.69 3.7a4.683 4.683 0 013.31-1.367h7v47.833h-7a6.996 6.996 0 00-4.667 1.786V7a4.676 4.676 0 011.357-3.3zm39.013 49.828l-2.47-5.417 7.468-.492.236.625-5.234 5.284zm-4.81-4.924l.968 2.123-7.43 3.39a1.166 1.166 0 10.968 2.121l7.43-3.39.969 2.124-15.237 6.95-.021.01-5.971 2.724-.97-2.124 8.493-3.873a1.166 1.166 0 00-.968-2.123l-8.492 3.873-.968-2.123 21.229-9.682zM13.2 67.56a1.167 1.167 0 01-1.545-.577L9.72 62.737a1.168 1.168 0 01.577-1.546l4.247-1.937 1.451 3.183v.001l.001.002 1.452 3.183L13.2 67.56zm18.18-5.728l11.447-5.221c.06-.035.115-.075.165-.12.064-.034.124-.075.18-.12l6.39-6.451a2.33 2.33 0 00.533-2.677l-.27-.591a2.317 2.317 0 00-2.324-1.358l-9.107.6a1.15 1.15 0 00-.367.093c-.013.006-.027.004-.04.01L9.328 59.068a3.49 3.49 0 00-2.01 2.764h-.037a4.89 4.89 0 01-4.947-4.666v-.17a4.654 4.654 0 014.667-4.497h7a2.336 2.336 0 002.333-2.333v-42H63a4.65 4.65 0 014.664 4.497 4.482 4.482 0 01-1.3 3.278A5.101 5.101 0 0162.72 17.5H56a2.335 2.335 0 00-2.333 2.333v41.999H31.381zM63 67.665h-7V19.833h6.719a7.434 7.434 0 004.947-1.92V63A4.671 4.671 0 0163 67.665z"/></g><defs><clipPath id="tclip0"><path fill="#fff" d="M0 0h70v70H0z"/></clipPath></defs></symbol><symbol fill="none" viewBox="0 0 70 70" id="services--8" xmlns="http://www.w3.org/2000/svg"><g clip-path="url(#uclip0)"><path d="M69.969 1.338a1.137 1.137 0 00-.049-.24 1.124 1.124 0 00-.118-.216 1.113 1.113 0 00-.075-.139c-.011-.013-.027-.018-.039-.03a1.15 1.15 0 00-.192-.154 1.15 1.15 0 00-.172-.116 1.149 1.149 0 00-.2-.058 1.143 1.143 0 00-.24-.048c-.018-.001-.033-.01-.05-.01a1.09 1.09 0 00-.159.031c-.08.008-.16.024-.236.048-.077.032-.149.07-.216.118a1.111 1.111 0 00-.14.076L.722 57.12l-.314.268c-.012.01-.017.025-.028.036a1.148 1.148 0 00-.152.193 1.15 1.15 0 00-.116.172 1.18 1.18 0 00-.054.196 1.15 1.15 0 00-.05.245c0 .016-.009.03-.009.045v10.232a1.166 1.166 0 001.167 1.166h67.666A1.166 1.166 0 0070 68.507V1.493a1.115 1.115 0 00-.031-.155zM67.667 67.34H2.333v-3.5h65.334v3.5zm0-5.833H8.209l2.781-2.334h56.677v2.334zM13.77 56.84l20.062-16.835V56.84H13.771zm22.396 0V38.047l1.718-1.442.615.616v19.62h-2.333zM63 55.118v1.722h-1.581L39.679 35.1l1.796-1.507L63 55.118zm-19.731-23.03L63 15.53v36.288l-19.731-19.73zm14.85 24.752H40.833V39.554L58.12 56.84zm9.548 0h-2.334V13.572l2.334-1.958V56.84zm0-48.273l-33.486 28.1-.008.007-24.43 20.5-.013.012-5.149 4.32H2.333V58.82L67.667 3.996v4.571z" fill="#000"/></g><defs><clipPath id="uclip0"><path fill="#fff" d="M0 0h70v70H0z"/></clipPath></defs></symbol><symbol fill="none" viewBox="0 0 21 20" id="telephone" xmlns="http://www.w3.org/2000/svg"><g clip-path="url(#vclip0)" fill="#1E7C24"><path d="M15.46 13.23c-.664-.645-1.494-.645-2.154 0-.503.492-1.007.983-1.502 1.482-.136.137-.25.167-.415.075-.326-.175-.673-.316-.986-.508-1.46-.903-2.683-2.064-3.766-3.37-.537-.65-1.015-1.345-1.35-2.128-.067-.158-.055-.262.076-.39.504-.48.995-.97 1.49-1.462.69-.682.69-1.481-.004-2.168-.394-.391-.787-.774-1.18-1.165-.407-.4-.81-.803-1.22-1.199-.664-.637-1.493-.637-2.153.004-.508.491-.995.995-1.511 1.478-.478.445-.72.99-.77 1.627-.08 1.036.177 2.014.541 2.967.745 1.973 1.88 3.725 3.254 5.332a20.093 20.093 0 006.67 5.131c1.167.558 2.377.987 3.694 1.057.905.05 1.692-.174 2.323-.87.431-.474.918-.907 1.375-1.36.677-.675.681-1.49.008-2.156-.804-.795-1.612-1.586-2.42-2.377zM14.652 9.913l1.56-.262a6.826 6.826 0 00-1.95-3.704 6.985 6.985 0 00-3.978-1.952l-.22 1.544a5.42 5.42 0 013.081 1.511 5.267 5.267 0 011.507 2.863zM17.093 3.238A11.586 11.586 0 0010.492 0l-.22 1.544c2.175.3 4.146 1.27 5.704 2.797a9.757 9.757 0 012.797 5.306l1.561-.262a11.344 11.344 0 00-3.241-6.147z"/></g><defs><clipPath id="vclip0"><path fill="#fff" d="M0 0h20.335v20H0z"/></clipPath></defs></symbol><symbol fill="none" viewBox="0 0 30 30" id="times" xmlns="http://www.w3.org/2000/svg"><path stroke="#000" stroke-width="2" stroke-linecap="round" d="M6.414 6l16.264 16.264M7 22.264L23.264 6"/></symbol><symbol fill="none" viewBox="0 0 20 20" id="user" xmlns="http://www.w3.org/2000/svg"><path d="M10 9.781c2.223 0 4.026-2.19 4.026-4.89C14.026 2.19 13.434 0 9.999 0 6.565 0 5.973 2.19 5.973 4.89c0 2.702 1.802 4.891 4.026 4.891zM2.394 17.248c0-.164-.001-.046 0 0zM17.605 17.377c.002-.045 0-.313 0 0zM17.596 17.05c-.075-4.704-.689-6.045-5.392-6.894 0 0-.661.844-2.204.844-1.543 0-2.205-.844-2.205-.844-4.651.84-5.303 2.16-5.389 6.742-.007.374-.01.394-.011.35v.495S3.515 20 10 20s7.604-2.257 7.604-2.257v-.366c0 .027-.003-.025-.008-.326z" fill="#000"/></symbol></svg>