<svg width="20" height="20" viewBox="0 0 20 20" fill="none" xmlns="http://www.w3.org/2000/svg">
<path d="M18 0H2C0.9 0 0 0.9 0 2V12C0 13.1 0.9 14 2 14H3V20L9.9 14H18C19.1 14 20 13.1 20 12V2C20 0.9 19.1 0 18 0ZM4 8C3.4 8 3 7.5 3 7C3 6.4 3.4 6 4 6C4.6 6 5 6.4 5 7C5 7.5 4.6 8 4 8ZM8 8C7.4 8 7 7.5 7 7C7 6.4 7.4 6 8 6C8.6 6 9 6.4 9 7C9 7.5 8.6 8 8 8ZM12 8C11.4 8 11 7.6 11 7C11 6.4 11.4 6 12 6C12.6 6 13 6.4 13 7C13 7.5 12.6 8 12 8ZM16 8C15.4 8 15 7.6 15 7C15 6.4 15.4 6 16 6C16.6 6 17 6.4 17 7C17 7.5 16.6 8 16 8Z" fill="black"/>
</svg>
