<svg width="30" height="30" viewBox="0 0 30 30" fill="none" xmlns="http://www.w3.org/2000/svg">
<path d="M25.3554 6.58989H11.969C11.601 5.49682 10.5671 4.70709 9.35154 4.70709C8.13596 4.70709 7.10207 5.49682 6.73404 6.58989H4.64453C4.15914 6.58989 3.76562 6.9834 3.76562 7.46879C3.76562 7.95418 4.15914 8.3477 4.64453 8.3477H6.7341C7.10213 9.44076 8.13602 10.2305 9.3516 10.2305C10.5672 10.2305 11.6011 9.44076 11.9691 8.3477H25.3555C25.8409 8.3477 26.2344 7.95418 26.2344 7.46879C26.2344 6.9834 25.8409 6.58989 25.3554 6.58989ZM9.35154 8.47268C8.79801 8.47268 8.34766 8.02233 8.34766 7.46879C8.34766 6.91526 8.79801 6.46491 9.35154 6.46491C9.90508 6.46491 10.3554 6.91526 10.3554 7.46879C10.3554 8.02233 9.90508 8.47268 9.35154 8.47268Z" fill="#1E7C24"/>
<path d="M25.3554 14.1211H23.2659C22.8978 13.028 21.8639 12.2383 20.6484 12.2383C19.4328 12.2383 18.3989 13.028 18.0309 14.1211H4.64453C4.15914 14.1211 3.76562 14.5146 3.76562 15C3.76562 15.4854 4.15914 15.8789 4.64453 15.8789H18.0309C18.3989 16.972 19.4329 17.7617 20.6484 17.7617C21.8639 17.7617 22.8979 16.972 23.2659 15.8789H25.3555C25.8409 15.8789 26.2344 15.4854 26.2344 15C26.2344 14.5146 25.8409 14.1211 25.3554 14.1211ZM20.6484 16.0039C20.0949 16.0039 19.6445 15.5535 19.6445 15C19.6445 14.4465 20.0949 13.9961 20.6484 13.9961C21.202 13.9961 21.6523 14.4465 21.6523 15C21.6523 15.5535 21.202 16.0039 20.6484 16.0039Z" fill="#1E7C24"/>
<path d="M25.3554 21.6523H15.7347C15.3667 20.5593 14.3328 19.7695 13.1172 19.7695C11.9016 19.7695 10.8677 20.5593 10.4997 21.6523H4.64453C4.15914 21.6523 3.76562 22.0458 3.76562 22.5312C3.76562 23.0166 4.15914 23.4101 4.64453 23.4101H10.4997C10.8677 24.5032 11.9016 25.2929 13.1172 25.2929C14.3328 25.2929 15.3667 24.5032 15.7347 23.4101H25.3555C25.8409 23.4101 26.2344 23.0166 26.2344 22.5312C26.2344 22.0458 25.8409 21.6523 25.3554 21.6523ZM13.1172 23.5352C12.5637 23.5352 12.1133 23.0848 12.1133 22.5313C12.1133 21.9778 12.5637 21.5274 13.1172 21.5274C13.6707 21.5274 14.1211 21.9777 14.1211 22.5312C14.1211 23.0848 13.6707 23.5352 13.1172 23.5352Z" fill="#1E7C24"/>
</svg>
