<svg width="20" height="20" viewBox="0 0 20 20" fill="none" xmlns="http://www.w3.org/2000/svg">
<g clip-path="url(#clip0)">
<path d="M10 -7.62939e-06C5.865 -7.62939e-06 2.5 3.38833 2.5 7.55416C2.5 13.4733 9.295 19.585 9.58417 19.8417C9.70333 19.9475 9.85167 20 10 20C10.1483 20 10.2967 19.9475 10.4158 19.8425C10.705 19.585 17.5 13.4733 17.5 7.55416C17.5 3.38833 14.135 -7.62939e-06 10 -7.62939e-06ZM10 11.6667C7.7025 11.6667 5.83333 9.79749 5.83333 7.49999C5.83333 5.20249 7.7025 3.33333 10 3.33333C12.2975 3.33333 14.1667 5.20249 14.1667 7.49999C14.1667 9.79749 12.2975 11.6667 10 11.6667Z" fill="#1E7C24"/>
</g>
<defs>
<clipPath id="clip0">
<rect width="20" height="20" fill="white"/>
</clipPath>
</defs>
</svg>
