<svg width="21" height="20" viewBox="0 0 21 20" fill="none" xmlns="http://www.w3.org/2000/svg">
<g clip-path="url(#clip0)">
<path d="M15.4599 13.2304C14.7956 12.5853 13.9662 12.5853 13.3061 13.2304C12.8025 13.7215 12.299 14.2126 11.8039 14.712C11.6685 14.8494 11.5542 14.8785 11.3892 14.7869C11.0633 14.6121 10.7164 14.4706 10.4032 14.2792C8.94333 13.3761 7.72041 12.2149 6.63713 10.9081C6.09972 10.2589 5.62156 9.56385 5.28726 8.78143C5.21956 8.62328 5.23225 8.51924 5.36343 8.39022C5.86699 7.91162 6.35785 7.42052 6.85294 6.92943C7.54269 6.24689 7.54269 5.44782 6.84871 4.76112C6.45517 4.36991 6.06164 3.98703 5.6681 3.59582C5.26187 3.19628 4.85988 2.79259 4.44941 2.39721C3.78506 1.76046 2.95567 1.76046 2.29555 2.40138C1.78776 2.89247 1.30113 3.39605 0.784881 3.87882C0.306715 4.32413 0.0655157 4.86933 0.0147369 5.50609C-0.0656627 6.54238 0.192463 7.5204 0.556377 8.47346C1.30113 10.4462 2.43519 12.1983 3.81045 13.8047C5.6681 15.9772 7.88544 17.696 10.4794 18.9363C11.6473 19.4939 12.8575 19.9226 14.1735 19.9934C15.0791 20.0433 15.8662 19.8186 16.4967 19.1235C16.9283 18.6491 17.4149 18.2163 17.8719 17.7626C18.549 17.0884 18.5532 16.2727 17.8804 15.6068C17.0764 14.8119 16.2682 14.0212 15.4599 13.2304Z" fill="#1E7C24"/>
<path d="M14.6515 9.91343L16.2129 9.65124C15.9675 8.24039 15.2904 6.96271 14.2622 5.94723C13.1747 4.87764 11.7994 4.20343 10.2845 3.99534L10.0645 5.53937C11.2366 5.70168 12.3029 6.22191 13.145 7.05011C13.9406 7.83253 14.461 8.82304 14.6515 9.91343Z" fill="#1E7C24"/>
<path d="M17.0928 3.23789C15.2901 1.46496 13.0093 0.34543 10.4915 0L10.2715 1.54403C12.4465 1.84368 14.4184 2.81338 15.9756 4.34077C17.4525 5.79324 18.4215 7.6286 18.7727 9.64708L20.3341 9.38488C19.9237 7.04595 18.8023 4.92342 17.0928 3.23789Z" fill="#1E7C24"/>
</g>
<defs>
<clipPath id="clip0">
<rect width="20.3352" height="20" fill="white"/>
</clipPath>
</defs>
</svg>
