<svg width="70" height="70" viewBox="0 0 70 70" fill="none" xmlns="http://www.w3.org/2000/svg">
<g clip-path="url(#clip0)">
<path d="M32.6673 22.1991C32.6673 22.8429 32.1452 23.365 31.5009 23.365C30.8571 23.365 30.335 22.8429 30.335 22.1991C30.335 21.5548 30.8571 21.0327 31.5009 21.0327C32.1452 21.0327 32.6673 21.5548 32.6673 22.1991Z" fill="black"/>
<path d="M23.3377 34.7576C23.1605 30.7651 25.188 26.9967 28.6174 24.9447C29.1934 24.6559 29.4256 23.9549 29.1368 23.3795C28.8474 22.8034 28.1465 22.5712 27.571 22.86C23.3484 25.3045 20.8223 29.8821 21.0054 34.7576C21.0054 35.402 21.5275 35.924 22.1718 35.924C22.8156 35.924 23.3377 35.402 23.3377 34.7576Z" fill="black"/>
<path d="M0.952202 41.9804C1.42304 42.0979 1.91791 41.9148 2.19924 41.5197C3.22901 40.3618 4.64047 39.6134 6.17631 39.4105C6.20567 39.6075 6.23717 39.7986 6.2708 39.9844C1.52287 44.1361 3.33044 50.8346 5.02376 53.8999C5.26025 54.328 5.73857 54.5629 6.22169 54.4882C6.70481 54.414 7.09024 54.0462 7.1874 53.5668C7.70094 52.1094 8.71363 50.8811 10.0455 50.0979C10.1491 50.2698 10.2521 50.4364 10.3541 50.5976C7.57229 56.2493 11.7821 61.7441 14.5047 63.9248C14.5687 63.9718 14.6376 64.0118 14.7102 64.0438C14.7961 64.0876 14.8874 64.1202 14.9819 64.1399C15.0422 64.157 15.1036 64.1688 15.1656 64.1757C15.1901 64.1773 15.2125 64.1896 15.2371 64.1896C15.2921 64.1826 15.3465 64.172 15.4004 64.1575C15.4496 64.1511 15.4987 64.1415 15.5467 64.1287C15.6247 64.1074 15.6994 64.078 15.7709 64.0401C15.7875 64.0316 15.8062 64.0294 15.8222 64.0198C15.8553 63.9963 15.8868 63.9702 15.9172 63.9429C15.9684 63.9141 16.017 63.8815 16.0635 63.8452C16.0768 63.8319 16.0811 63.8132 16.0934 63.7993C16.174 63.7107 16.2407 63.6104 16.2904 63.5015C16.3144 63.4411 16.3331 63.3792 16.3459 63.3157C16.3662 63.2458 16.38 63.1732 16.3864 63.1C16.3902 63.0434 16.3896 62.9863 16.3843 62.9292C16.3822 62.8934 16.3896 62.8582 16.3832 62.8219C16.2962 61.2674 16.7681 59.7326 17.7136 58.4957C17.8652 58.6067 18.0189 58.7172 18.1759 58.8277C17.7344 65.3694 24.2066 68.7053 27.0055 69.5199L27.0311 69.5274C27.0685 69.5381 27.1123 69.5536 27.148 69.5632C27.1955 69.5722 27.2436 69.5776 27.2916 69.5802C27.3461 69.5952 27.4016 69.6064 27.4576 69.6133C27.6589 69.6069 27.8548 69.5477 28.0262 69.442C28.078 69.4142 28.1276 69.3827 28.1746 69.347C28.2034 69.3235 28.2381 69.3149 28.2653 69.2888C28.2878 69.2594 28.3091 69.229 28.3289 69.197C28.3454 69.1783 28.3668 69.1655 28.3822 69.1452C28.4356 69.0485 28.4885 68.9519 28.5419 68.8548C28.5856 68.7405 28.6118 68.6199 28.6182 68.4976C28.6171 68.4544 28.6129 68.4117 28.607 68.369C28.5824 68.188 28.5328 68.0108 28.4586 67.8437C27.7865 66.4397 27.6306 64.8446 28.0176 63.337C28.2045 63.3829 28.3945 63.4267 28.5883 63.4694C30.3478 68.6797 35.8031 70.026 39.4769 70.026C39.9723 70.0276 40.4677 70.0009 40.9605 69.947C41.4468 69.8925 41.8472 69.5402 41.9635 69.0646C42.0794 68.5894 41.8861 68.0924 41.4799 67.8197C40.3343 66.7867 39.5917 65.3806 39.3857 63.8511C39.5826 63.8212 39.7738 63.7897 39.9595 63.7566C44.1186 68.5067 50.814 66.7055 53.8739 65.016C54.2951 64.7805 54.5268 64.3097 54.4569 63.8324C54.387 63.352 54.0293 62.9639 53.5563 62.8555C52.0893 62.3436 50.8556 61.3213 50.081 59.9749C50.2401 59.8778 50.4024 59.7769 50.5684 59.6717C56.2201 62.4589 61.7186 58.2469 63.8994 55.5238C63.9634 55.4416 64.0157 55.3509 64.0552 55.2542C64.0862 55.1768 64.1086 55.0962 64.122 55.014C64.1353 54.959 64.1444 54.9035 64.1497 54.8475C64.1535 54.6371 64.1049 54.4295 64.0093 54.2421C64.0035 54.2303 64.0019 54.2175 63.9955 54.2063C63.9693 54.17 63.9415 54.1359 63.9116 54.1028C63.8791 54.0467 63.8412 53.9933 63.7995 53.9437C63.7595 53.9148 63.7173 53.8882 63.6736 53.8647C63.6068 53.8124 63.5348 53.767 63.4579 53.7301C63.3276 53.6826 63.192 53.6522 63.0543 53.6399C62.9977 53.6362 62.9406 53.6373 62.884 53.6426C62.8557 53.6458 62.828 53.6394 62.7997 53.6442C61.2441 53.7312 59.7088 53.2598 58.4697 52.3149C58.5802 52.1633 58.6907 52.0096 58.8012 51.8532C66.3678 52.3993 69.1902 44.0138 69.5041 42.992C69.5121 42.9718 69.5158 42.9515 69.5222 42.9307L69.5372 42.8821C69.5457 42.834 69.5516 42.786 69.5543 42.7379C69.5746 42.6023 69.5703 42.4641 69.5415 42.3301C69.5335 42.2794 69.5217 42.2297 69.5073 42.1806C69.4806 42.1123 69.447 42.0472 69.408 41.9852C69.376 41.9313 69.3402 41.8806 69.3002 41.8326C69.2767 41.7941 69.2505 41.7573 69.2228 41.7226C69.2009 41.7018 69.1726 41.6954 69.1496 41.6772C69.139 41.6681 69.1326 41.6559 69.1213 41.6473C68.9927 41.5683 68.8555 41.5042 68.7119 41.4573C68.6238 41.4316 68.5331 41.4167 68.4418 41.4124C68.303 41.4178 68.1658 41.4413 68.0334 41.4824C67.9869 41.4978 67.9416 41.516 67.8978 41.5373C67.8722 41.5502 67.8444 41.5539 67.8198 41.5688C66.4148 42.2388 64.8192 42.3952 63.3111 42.0098C63.3575 41.8229 63.4018 41.6324 63.444 41.4397C69.4187 39.4228 70.3129 32.5444 69.9221 29.0664C69.865 28.5865 69.518 28.192 69.0498 28.074C68.579 27.9566 68.0841 28.1397 67.8028 28.5347C66.773 29.6926 65.3615 30.441 63.8257 30.6439C63.7963 30.4464 63.7648 30.2547 63.7312 30.069C68.4802 25.9104 66.6801 19.2156 64.9911 16.1545C64.7562 15.7317 64.2837 15.499 63.8054 15.5716C63.325 15.6421 62.9374 16.0003 62.8296 16.4732C62.3213 17.9424 61.3017 19.1793 59.957 19.9581C59.8518 19.7857 59.7499 19.6197 59.6474 19.4579C62.4452 13.7987 58.2167 8.29969 55.4824 6.11684C55.1002 5.81095 54.5674 5.77679 54.1489 6.03089C53.7303 6.285 53.5152 6.77346 53.6102 7.25391C53.694 8.80043 53.2248 10.3261 52.2868 11.5588C52.1352 11.4483 51.981 11.3377 51.8245 11.2272C52.2655 4.69097 45.8045 1.35503 43.0019 0.537194L42.9816 0.530254C42.9405 0.518509 42.8924 0.501427 42.8529 0.49075C42.8182 0.481141 42.7825 0.484878 42.7467 0.479539C42.4557 0.423487 42.1547 0.484344 41.908 0.648231C41.8904 0.659442 41.8723 0.668517 41.8557 0.681329C41.8119 0.704818 41.7703 0.730976 41.7303 0.760337C41.6972 0.800908 41.6667 0.843615 41.64 0.888457C41.6336 0.896465 41.6246 0.901269 41.6187 0.909277C41.6075 0.92369 41.6032 0.940773 41.5931 0.956254C41.426 1.19488 41.3576 1.48902 41.402 1.77729C41.4068 1.82747 41.4153 1.87765 41.427 1.9273C41.4468 1.99083 41.4714 2.05222 41.5018 2.11147C41.5173 2.14457 41.5237 2.1798 41.5424 2.21183C42.2139 3.61529 42.3703 5.21092 41.9828 6.71794C41.7965 6.67256 41.6059 6.62825 41.4121 6.58608C39.3953 0.611397 32.5141 -0.282777 29.0399 0.10799C28.5547 0.163509 28.1554 0.51584 28.0395 0.989886C27.9232 1.46447 28.1153 1.96093 28.5205 2.23426C29.6667 3.26723 30.4092 4.67335 30.6158 6.20279C30.4188 6.23322 30.2272 6.26471 30.0419 6.29728C25.8828 1.54828 19.1875 3.34784 16.1275 5.03849C15.7063 5.27391 15.4747 5.74529 15.5446 6.22254C15.6151 6.70299 15.9733 7.09109 16.4462 7.19946C17.9153 7.70713 19.1528 8.72676 19.9327 10.0715C19.7592 10.1751 19.5927 10.2781 19.4325 10.3806C13.7723 7.58275 8.27428 11.8107 6.08983 14.5445C5.79142 14.9257 5.75832 15.4515 6.00709 15.8668C6.25532 16.2821 6.7347 16.5021 7.21142 16.4188C8.76381 16.3248 10.2981 16.7941 11.5323 17.74C11.4218 17.8916 11.3113 18.0454 11.2008 18.2018C3.64326 17.6717 0.811269 26.0476 0.497908 27.0619C0.489367 27.0838 0.48563 27.1056 0.478156 27.1281L0.46481 27.1713C0.458404 27.2097 0.4536 27.2482 0.451464 27.2866C0.415164 27.4735 0.426374 27.6656 0.482961 27.8466L0.484562 27.853C0.51766 27.9475 0.56357 28.0372 0.62069 28.1194C0.63457 28.1407 0.648449 28.161 0.663931 28.1813C0.695961 28.2368 0.732795 28.2892 0.773901 28.3383C0.990104 28.5449 1.27837 28.6602 1.57786 28.6596C1.63711 28.6527 1.6953 28.641 1.75295 28.6249C1.80901 28.618 1.86453 28.6068 1.91898 28.5913C1.98304 28.5721 2.0455 28.547 2.10475 28.5166C2.12984 28.5043 2.15707 28.5006 2.18109 28.4861C3.58721 27.8183 5.18231 27.6624 6.69093 28.0457C6.64448 28.232 6.59964 28.4221 6.55747 28.6159C0.583321 30.6322 -0.310852 37.5106 0.0799151 40.9886C0.137035 41.4685 0.484028 41.863 0.952202 41.9804ZM7.84935 30.6642C8.2871 30.5515 8.62074 30.1965 8.70562 29.7529C8.84549 29.0077 9.02592 28.271 9.24693 27.5455C9.33822 27.2487 9.30725 26.9279 9.16152 26.6535C9.01525 26.3796 8.76595 26.1752 8.4686 26.0855C6.90233 25.5815 5.24477 25.4251 3.61177 25.6275C4.8129 23.2898 7.30964 19.9752 11.6065 20.5896C12.0501 20.6489 12.4894 20.4525 12.7409 20.082C13.185 19.4157 13.6254 18.8146 14.0867 18.2456C14.4913 17.747 14.4171 17.0151 13.9207 16.6083C12.6635 15.5422 11.188 14.765 9.59766 14.3315C11.6134 12.6366 15.1848 10.5461 18.8971 12.7417C19.2868 12.9729 19.7752 12.9569 20.1489 12.7006C20.7185 12.3109 21.3399 11.9335 22.1054 11.5118C22.6649 11.2038 22.872 10.5023 22.5699 9.9391C21.8145 8.46785 20.7436 7.18184 19.433 6.17236C21.9383 5.362 26.0248 4.78706 28.6454 8.27514C28.9193 8.63654 29.3768 8.8079 29.8204 8.71555C30.4776 8.57568 31.2169 8.45984 32.0785 8.36055C32.7122 8.28741 33.1692 7.71941 33.1056 7.08522C32.969 5.44901 32.4768 3.86192 31.6637 2.43498C34.2875 2.65865 38.2956 3.7007 39.3638 7.87636C39.4753 8.31357 39.8298 8.64668 40.2729 8.7321C41.0187 8.87143 41.7559 9.0524 42.4814 9.27287C42.7782 9.36469 43.099 9.33427 43.3734 9.18799C43.6473 9.04226 43.8517 8.79242 43.9414 8.49508C44.4469 6.92934 44.6039 5.27178 44.4016 3.63878C46.7398 4.8383 50.0511 7.32811 49.4372 11.633C49.3748 12.0771 49.5723 12.5181 49.9454 12.7674C50.6186 13.2168 51.2186 13.6573 51.7802 14.1132C52.2788 14.5183 53.0107 14.4436 53.4175 13.9466C54.4889 12.6851 55.2683 11.2022 55.7002 9.60439C57.4074 11.6084 59.5064 15.1669 57.2857 18.923C57.0545 19.3132 57.0705 19.8017 57.3268 20.1765C57.717 20.745 58.0939 21.3664 58.5162 22.1308C58.8242 22.6908 59.5257 22.899 60.0888 22.5969C61.5542 21.8442 62.836 20.7781 63.8438 19.4755C64.6387 21.9851 65.2003 26.0807 61.7528 28.6719C61.3909 28.9447 61.219 29.4022 61.3124 29.8458C61.4523 30.5051 61.5686 31.245 61.6685 32.1055C61.7389 32.7408 62.3091 33.1994 62.9443 33.1321C64.5805 32.9949 66.1671 32.5027 67.594 31.6908C67.3709 34.3146 66.3288 38.321 62.1527 39.3897C61.7149 39.5024 61.3813 39.8574 61.2964 40.301C61.1565 41.0462 60.9761 41.7834 60.7556 42.5084C60.6638 42.8052 60.6948 43.1266 60.8405 43.4004C60.9868 43.6743 61.2361 43.8787 61.5334 43.9684C63.0997 44.4729 64.7572 44.6293 66.3902 44.427C65.1891 46.7652 62.6972 50.0771 58.3955 49.4643C57.9514 49.4018 57.511 49.5993 57.2611 49.9719C56.817 50.6382 56.3766 51.2393 55.9153 51.8083C55.5101 52.3069 55.5849 53.0394 56.0824 53.4456C57.3455 54.5159 58.8285 55.2959 60.4262 55.7294C58.4308 57.4334 54.8765 59.534 51.1033 57.31C50.7179 57.0826 50.2359 57.096 49.8632 57.3453C49.1538 57.8188 48.5196 58.2037 47.9227 58.5218C47.6494 58.667 47.445 58.9153 47.3547 59.2116C47.2645 59.5078 47.296 59.8281 47.4423 60.1015C48.1966 61.5754 49.2669 62.8651 50.5764 63.8789C48.0696 64.6887 43.9777 65.2685 41.3571 61.7782C41.0849 61.4152 40.6263 61.2433 40.1821 61.3378C39.5218 61.4777 38.8038 61.5909 37.9224 61.6934C37.2893 61.7665 36.8323 62.3345 36.8964 62.9687C37.0336 64.6118 37.5284 66.2048 38.3473 67.636C35.7246 67.4289 31.7203 66.4023 30.6388 62.177C30.5267 61.7393 30.1717 61.4056 29.7275 61.3207C28.9823 61.1819 28.2456 61.0015 27.5206 60.781C27.2238 60.6892 26.903 60.7202 26.6286 60.8659C26.3547 61.0122 26.1498 61.2615 26.0606 61.5588C25.5551 63.1251 25.3981 64.7827 25.6004 66.4157C23.2622 65.2156 19.9509 62.7263 20.5642 58.4215C20.6272 57.9768 20.4297 57.5359 20.0566 57.2866C19.3834 56.8371 18.7834 56.3972 18.2218 55.9408C17.7237 55.535 16.9907 55.6098 16.584 56.1073C15.5131 57.3704 14.7326 58.8528 14.2975 60.4501C12.5935 58.4551 10.495 54.9019 12.7179 51.1288C12.9475 50.7385 12.9309 50.2511 12.6758 49.8775C12.285 49.3084 11.9081 48.6875 11.4864 47.9225C11.1778 47.3615 10.4753 47.1538 9.91209 47.457C8.44458 48.2135 7.16177 49.2849 6.15603 50.5944C5.343 48.0896 4.75951 43.9978 8.24866 41.3825C8.61167 41.1103 8.7841 40.6522 8.69014 40.2081C8.55028 39.5488 8.4339 38.8084 8.33354 37.9478C8.2604 37.3147 7.6924 36.8577 7.05821 36.9218C5.422 37.059 3.83544 37.5507 2.4085 38.3632C2.63111 35.7394 3.67316 31.7329 7.84935 30.6642Z" fill="black"/>
<path d="M34.9998 54.8523C45.9488 54.8523 54.8249 45.9762 54.8249 35.0272C54.8249 24.0778 45.9488 15.2022 34.9998 15.2022C24.0509 15.2022 15.1748 24.0778 15.1748 35.0272C15.1871 45.9709 24.0557 54.84 34.9998 54.8523ZM34.9998 17.5345C44.6607 17.5345 52.4925 25.3659 52.4925 35.0272C52.4925 44.6881 44.6607 52.5199 34.9998 52.5199C25.339 52.5199 17.5071 44.6881 17.5071 35.0272C17.5178 25.3707 25.3433 17.5452 34.9998 17.5345Z" fill="black"/>
<path d="M34.9999 42.0242C38.8643 42.0242 41.9969 38.8917 41.9969 35.0272C41.9969 31.1628 38.8643 28.0297 34.9999 28.0297C31.1355 28.0297 28.0029 31.1628 28.0029 35.0272C28.0072 38.8895 31.1371 42.0199 34.9999 42.0242ZM34.9999 30.3626C37.5762 30.3626 39.6646 32.4509 39.6646 35.0272C39.6646 37.6035 37.5762 39.6919 34.9999 39.6919C32.4236 39.6919 30.3353 37.6035 30.3353 35.0272C30.3379 32.452 32.4247 30.3653 34.9999 30.3626Z" fill="black"/>
<path d="M40.8635 46.1342C41.1518 46.7102 41.8522 46.9435 42.4282 46.6557C46.6513 44.2113 49.1775 39.6337 48.9938 34.7576C48.9938 34.1138 48.4717 33.5917 47.8279 33.5917C47.1836 33.5917 46.6615 34.1138 46.6615 34.7576C46.8393 38.7507 44.8117 42.5191 41.3819 44.5711C40.808 44.8605 40.5763 45.5592 40.8635 46.1342Z" fill="black"/>
</g>
<defs>
<clipPath id="clip0">
<rect width="70" height="70" fill="white"/>
</clipPath>
</defs>
</svg>
