<svg width="70" height="70" viewBox="0 0 70 70" fill="none" xmlns="http://www.w3.org/2000/svg">
<path d="M69.9789 36.0624C69.9716 35.9849 69.9561 35.9084 69.9327 35.834C69.9107 35.7589 69.8811 35.6862 69.844 35.6173C69.8269 35.5856 69.8243 35.55 69.8039 35.5194C69.7825 35.4875 69.7494 35.4706 69.7255 35.4415C69.5306 35.2026 69.2485 35.0515 68.9417 35.0219C68.9058 35.0127 68.8696 35.0055 68.8331 35H46.6666V1.16662C46.6666 1.12971 46.649 1.09854 46.6456 1.06244C46.6382 0.984922 46.6227 0.908359 46.5995 0.833984C46.5775 0.758926 46.5478 0.686191 46.5108 0.617285C46.4935 0.585566 46.4909 0.55002 46.4706 0.519395C46.4491 0.487129 46.4156 0.470039 46.3915 0.440645C46.2943 0.322383 46.1754 0.223809 46.0411 0.150391C45.9051 0.079707 45.7569 0.0358203 45.6043 0.0210547C45.5682 0.0177734 45.537 0 45.5 0H36.1666C36.1315 0 36.1018 0.0170898 36.0674 0.0200977C35.9104 0.035957 35.758 0.0817578 35.6182 0.155313C35.5863 0.172676 35.5503 0.175273 35.5194 0.196055L0.519531 23.5293C0.487266 23.5508 0.470312 23.5843 0.440918 23.6082C0.379395 23.6581 0.32334 23.7144 0.273711 23.7761C0.131523 23.9518 0.0440234 24.1653 0.0221484 24.3904C0.0128516 24.4264 0.00546875 24.4631 0 24.5V68.8334C0 69.4777 0.522266 70 1.16662 70H33.8332H33.8337H33.8343C33.9723 69.997 34.1087 69.9694 34.237 69.9185C34.2768 69.9025 34.3156 69.8842 34.3533 69.8637C34.3969 69.8465 34.4393 69.8266 34.4803 69.8039L69.4803 46.4706C69.5125 46.4491 69.5295 46.4156 69.5588 46.3917C69.6765 46.295 69.7747 46.1768 69.848 46.0432C69.9184 45.9082 69.9624 45.7611 69.9777 45.6096C69.987 45.5734 69.9944 45.5369 69.9999 45.5V36.1666C70 36.1297 69.9824 36.0985 69.9789 36.0624ZM36.5199 2.33338H41.6469L10.1469 23.3334H5.0199L36.5199 2.33338ZM44.3334 3.3466V35.5424L11.6666 57.3202V25.1244L44.3334 3.3466ZM32.6666 67.6666H2.33338V25.6666H9.33338V59.5C9.33338 59.5369 9.35102 59.5681 9.35443 59.6042C9.37084 59.7598 9.41664 59.9108 9.48937 60.0493C9.50646 60.0811 9.50906 60.1166 9.52943 60.1471C9.56471 60.1948 9.60354 60.2397 9.64578 60.2813C9.66315 60.3004 9.67695 60.3209 9.69541 60.3386C9.78961 60.4287 9.89857 60.5021 10.0175 60.5557C10.0427 60.5674 10.0682 60.575 10.0944 60.5847C10.2231 60.6357 10.36 60.6633 10.4985 60.6663L10.5003 60.6668H32.6669V67.6666H32.6666ZM33.4801 58.3334H14.3531L45.8531 37.3334H64.9801L33.4801 58.3334ZM67.6666 44.8756L35 66.6534V60.1243L67.6666 38.3465V44.8756Z" fill="black"/>
</svg>
