<svg width="70" height="70" viewBox="0 0 70 70" fill="none" xmlns="http://www.w3.org/2000/svg">
<g clip-path="url(#clip0)">
<path d="M56.8689 13.1425C57.6229 13.8735 58.6406 14.2686 59.6904 14.2387C61.6014 14.1426 63.4003 13.3054 64.7048 11.9053C66.6693 9.52009 68.3347 6.90314 69.6643 4.11372C70.2522 3.02337 70.0818 1.67992 69.2414 0.770578C68.332 -0.0704139 66.9891 -0.240748 65.8988 0.346611C63.1088 1.67671 60.4918 3.34268 58.1056 5.30713C55.5623 7.85092 55.0187 11.2923 56.8689 13.1425ZM59.7555 6.95707C61.9448 5.18859 64.3332 3.68174 66.8716 2.46644C67.0195 2.39329 67.1813 2.35218 67.3463 2.34577C67.4344 2.33829 67.5225 2.36499 67.5914 2.41999C67.6859 2.51343 67.711 2.77881 67.545 3.13977C66.3297 5.6777 64.8234 8.06611 63.0554 10.2554C61.3537 11.9582 59.2974 12.2721 58.5178 11.4925C57.7382 10.7135 58.0548 8.65774 59.7555 6.95707Z" fill="black"/>
<path d="M32.674 23.3417C33.9614 23.3401 35.0053 22.2967 35.0069 21.0088V11.6772C35.0053 10.3893 33.9614 9.34543 32.674 9.34436H9.3446C8.05668 9.34543 7.01332 10.3893 7.01172 11.6772V21.0088C7.01332 22.2967 8.05668 23.3401 9.3446 23.3417H32.674ZM20.2882 11.6772L15.6224 21.0088H12.3983L17.0646 11.6772H20.2882ZM32.675 21.0088H18.2308L22.8966 11.6772H32.674L32.675 21.0088ZM9.3446 11.6772H14.4557L9.78993 21.0088H9.3446V11.6772Z" fill="black"/>
<path d="M22.1756 43.1714C22.1756 43.8154 21.6534 44.3381 21.0089 44.3381C20.365 44.3381 19.8428 43.8154 19.8428 43.1714C19.8428 42.5274 20.365 42.0047 21.0089 42.0047C21.6534 42.0047 22.1756 42.5274 22.1756 43.1714Z" fill="black"/>
<path d="M39.1132 51.8371C39.1132 52.4811 38.5909 53.0033 37.9464 53.0033C37.3025 53.0033 36.7803 52.4811 36.7803 51.8371C36.7803 51.1926 37.3025 50.6704 37.9464 50.6704C38.5909 50.6704 39.1132 51.1926 39.1132 51.8371Z" fill="black"/>
<path d="M42.8477 30.4637C43.1814 30.1305 43.2813 29.6286 43.1008 29.1928C42.9203 28.7566 42.4948 28.4725 42.0227 28.4725C41.5513 28.4725 41.1257 28.7566 40.9452 29.1928C40.7647 29.6286 40.8646 30.1305 41.1983 30.4637C41.6538 30.9197 42.3922 30.9197 42.8477 30.4637Z" fill="black"/>
<path d="M22.1756 38.5056C22.1756 39.1496 21.6534 39.6718 21.0089 39.6718C20.365 39.6718 19.8428 39.1496 19.8428 38.5056C19.8428 37.8611 20.365 37.3389 21.0089 37.3389C21.6534 37.3389 22.1756 37.8611 22.1756 38.5056Z" fill="black"/>
<path d="M15.1767 52.8388V66.5008C15.1788 68.4321 16.7439 69.9977 18.6758 69.9998H23.3415C25.2734 69.9977 26.839 68.4321 26.8411 66.5008V52.8361C28.5952 52.3342 30.2745 51.5989 31.8337 50.6506L31.8315 50.6704V53.0033C31.8294 53.6211 32.0745 54.2138 32.5118 54.6505L46.7291 68.9741C47.3853 69.6309 48.2755 69.9993 49.204 69.9993C50.132 69.9993 51.0227 69.6309 51.6789 68.9741L54.9778 65.6753C56.3399 64.3131 56.3452 62.1063 54.9895 60.7377L51.1428 56.7864L51.9699 55.9598C52.8771 55.0473 52.8766 53.5735 51.9689 52.6621L47.0196 47.7133C47.9294 46.8018 47.9294 45.3249 47.0196 44.4134L44.9862 42.3811C44.4352 41.8285 43.6439 41.5887 42.8787 41.7431L39.7107 42.3763C39.6717 42.3844 39.6381 42.4068 39.5991 42.4164C40.5522 40.5966 41.2362 38.6482 41.6287 36.6314L57.694 20.5661C59.0588 19.1986 59.0588 16.9848 57.694 15.6173L54.3952 12.3185C53.0106 10.9964 50.8315 10.9964 49.447 12.3185L42.0051 19.7603V11.6772C41.9977 5.23763 36.7798 0.0197435 30.3407 0.0122681H11.6771C5.23806 0.0197435 0.0196368 5.23763 0.0126953 11.6772V32.6732C0.0126953 42.0218 6.19545 50.2438 15.1767 52.8388ZM24.5082 66.5008C24.5077 67.1447 23.9855 67.6664 23.3415 67.667H18.6758C18.0318 67.6664 17.5101 67.1447 17.5096 66.5008V37.3389C17.5096 35.4065 19.0762 33.8399 21.0086 33.8399C22.9416 33.8399 24.5082 35.4065 24.5082 37.3389V66.5008ZM41.1988 23.8655L46.1471 28.8148L39.3876 35.5747L37.5316 27.5327L41.1988 23.8655ZM36.8262 42.5323C35.7161 41.1456 35.8229 39.1475 37.074 37.8868L37.7425 37.2183C38.0202 37.4997 38.3646 37.7058 38.7437 37.8168C38.8088 37.8355 38.875 37.8318 38.9407 37.8446C38.4521 39.4961 37.7409 41.0729 36.8262 42.5323ZM36.823 34.8389L35.4246 36.2374C33.151 38.5169 33.151 42.206 35.4246 44.4855L36.2373 45.2982L34.5879 46.9481L33.7752 46.1354C30.5911 42.9445 30.5911 37.7789 33.7752 34.588L36.2047 32.1584L36.823 34.8389ZM40.171 44.6633L43.3363 44.03L45.3696 46.0628C44.9323 46.5007 44.6862 47.0939 44.6862 47.7128C44.6862 48.3316 44.9323 48.9249 45.3696 49.3627L50.3195 54.3109L49.4924 55.1375C48.5878 56.0447 48.5836 57.5115 49.4822 58.4246L53.3278 62.3765C53.7822 62.833 53.7822 63.5704 53.3278 64.0264L50.029 67.3252C49.5687 67.7647 48.8447 67.7657 48.3828 67.3284L34.1644 53.0033V50.6704L35.392 49.4423C35.3995 49.4353 35.4091 49.4332 35.4166 49.4263C35.4235 49.4193 35.4256 49.4092 35.4326 49.4022L38.6924 46.1424C38.6994 46.136 38.709 46.1338 38.7154 46.1269C38.7223 46.12 38.7245 46.1103 38.7314 46.1034L40.171 44.6633ZM51.0975 13.9674C51.3158 13.7485 51.6122 13.6262 51.9214 13.6262C52.2305 13.6262 52.5269 13.749 52.7458 13.9679L56.0446 17.2667C56.499 17.7227 56.499 18.4607 56.0446 18.9167L47.7965 27.1653L42.8483 22.216L51.0975 13.9674ZM2.34558 11.6772C2.35145 6.52555 6.52597 2.35103 11.6771 2.34515H30.3407C35.4919 2.35103 39.6664 6.52555 39.6722 11.6772V22.0932L35.8832 25.8822C35.3103 26.4488 35.0738 27.2727 35.258 28.0565L35.5858 29.4779L32.1252 32.9385C28.0612 37.0132 28.0313 43.5986 32.0574 47.7101C31.674 47.991 31.2832 48.259 30.8832 48.5078C29.6199 49.3072 28.262 49.9474 26.8411 50.4136V37.3389C26.8411 34.1181 24.23 31.507 21.0086 31.507C17.7878 31.507 15.1767 34.1181 15.1767 37.3389V50.4023C7.52128 47.881 2.34771 40.7328 2.34558 32.6732V11.6772Z" fill="black"/>
</g>
<defs>
<clipPath id="clip0">
<rect width="70" height="70" fill="white"/>
</clipPath>
</defs>
</svg>
