<svg width="70" height="70" viewBox="0 0 70 70" fill="none" xmlns="http://www.w3.org/2000/svg">
<path d="M65.625 9.84375H55.4455L52.43 1.80359C52.2703 1.37703 51.8623 1.09375 51.4062 1.09375H42.6562C42.2002 1.09375 41.7922 1.37703 41.6314 1.80359L38.617 9.84375H28.4375C26.6284 9.84375 25.1562 11.3159 25.1562 13.125V52.5H20.7812C18.9722 52.5 17.5 51.0278 17.5 49.2188V38.1708C19.9927 37.6622 21.875 35.4539 21.875 32.8125V16.4062C21.875 15.1998 20.8939 14.2188 19.6875 14.2188V9.84375C19.6875 5.62188 16.252 2.1875 12.0312 2.1875H9.84375C9.84375 1.86594 9.70266 1.56078 9.45656 1.35297C9.21156 1.14516 8.88672 1.05656 8.56953 1.10906L2.00703 2.20281C1.48094 2.29031 1.09375 2.74641 1.09375 3.28125V7.65625C1.09375 8.19109 1.48094 8.64719 2.00812 8.73469L8.57062 9.82844C8.63078 9.83938 8.68984 9.84375 8.75 9.84375C9.00703 9.84375 9.25859 9.75297 9.45656 9.58453C9.70266 9.37672 9.84375 9.07156 9.84375 8.75H10.9375C12.1439 8.75 13.125 9.73109 13.125 10.9375V14.2188C11.9186 14.2188 10.9375 15.1998 10.9375 16.4062H7.65625C7.05141 16.4062 6.5625 16.8962 6.5625 17.5V20.7812C6.5625 21.0295 6.64672 21.2702 6.80203 21.4648L10.9375 26.6339V32.8125C10.9375 35.4528 12.8198 37.6622 15.3125 38.1708V49.2188C15.3125 52.2342 17.7658 54.6875 20.7812 54.6875H25.1562V59.0625C25.1562 60.5839 26.203 61.8559 27.6095 62.2245L29.587 68.1581C29.7369 68.6055 30.1536 68.9062 30.625 68.9062H35C35.4714 68.9062 35.8881 68.6055 36.0369 68.1581L37.975 62.3438H56.0875L58.0256 68.1581C58.1744 68.6055 58.5911 68.9062 59.0625 68.9062H63.4375C63.9089 68.9062 64.3256 68.6055 64.4744 68.1581L66.4519 62.2245C67.8595 61.8559 68.9062 60.5839 68.9062 59.0625V13.125C68.9062 11.3159 67.4341 9.84375 65.625 9.84375ZM7.65625 7.45828L3.28125 6.72984V4.20766L7.65625 3.47813V7.45828ZM10.9375 6.5625H9.84375V4.375H12.0312C15.0467 4.375 17.5 6.82828 17.5 9.84375V14.2188H15.3125V10.9375C15.3125 8.52469 13.3503 6.5625 10.9375 6.5625ZM19.6875 16.4062V31.7188H13.125V16.4062H19.6875ZM8.75 20.3973V18.5938H10.9375V23.1317L8.75 20.3973ZM13.3263 33.9062H19.4852C19.0323 35.1761 17.8292 36.0938 16.4052 36.0938C14.9811 36.0938 13.7791 35.1761 13.3263 33.9062ZM43.4142 3.28125H50.6472L53.1081 9.84375H40.9533L43.4142 3.28125ZM34.2114 66.7188H31.4125L29.9534 62.3438H35.6694L34.2114 66.7188ZM62.6489 66.7188H59.85L58.3909 62.3438H64.1069L62.6489 66.7188ZM66.7188 59.0625C66.7188 59.6652 66.2288 60.1562 65.625 60.1562H28.4375C27.8337 60.1562 27.3438 59.6652 27.3438 59.0625V54.6875H29.6866C30.1755 56.5687 31.873 57.9688 33.9062 57.9688C36.3191 57.9688 38.2812 56.0066 38.2812 53.5938C38.2812 51.1809 36.3191 49.2188 33.9062 49.2188C31.873 49.2188 30.1755 50.6188 29.6866 52.5H27.3438V13.125C27.3438 12.5223 27.8337 12.0312 28.4375 12.0312H65.625C66.2288 12.0312 66.7188 12.5223 66.7188 13.125V59.0625ZM32.0228 52.5C32.4023 51.8492 33.1002 51.4062 33.9062 51.4062C35.1127 51.4062 36.0938 52.3873 36.0938 53.5938C36.0938 54.8002 35.1127 55.7812 33.9062 55.7812C33.1002 55.7812 32.4023 55.3383 32.0228 54.6875H33.9062V52.5H32.0228Z" fill="black"/>
<path d="M30.625 22.9688H41.5625C42.1673 22.9688 42.6562 22.4788 42.6562 21.875V15.3125C42.6562 14.7088 42.1673 14.2188 41.5625 14.2188H30.625C30.0202 14.2188 29.5312 14.7088 29.5312 15.3125V21.875C29.5312 22.4788 30.0202 22.9688 30.625 22.9688ZM31.7188 16.4062H40.4688V20.7812H31.7188V16.4062Z" fill="black"/>
<path d="M30.625 33.9062H41.5625C42.1673 33.9062 42.6562 33.4163 42.6562 32.8125V26.25C42.6562 25.6463 42.1673 25.1562 41.5625 25.1562H30.625C30.0202 25.1562 29.5312 25.6463 29.5312 26.25V32.8125C29.5312 33.4163 30.0202 33.9062 30.625 33.9062ZM31.7188 27.3438H40.4688V31.7188H31.7188V27.3438Z" fill="black"/>
<path d="M33.9062 38.2812C31.4934 38.2812 29.5312 40.2434 29.5312 42.6562C29.5312 45.0691 31.4934 47.0312 33.9062 47.0312C36.3191 47.0312 38.2812 45.0691 38.2812 42.6562C38.2812 40.2434 36.3191 38.2812 33.9062 38.2812ZM33.9062 44.8438C32.6998 44.8438 31.7188 43.8627 31.7188 42.6562C31.7188 41.4498 32.6998 40.4688 33.9062 40.4688C35.1127 40.4688 36.0938 41.4498 36.0938 42.6562C36.0938 43.8627 35.1127 44.8438 33.9062 44.8438Z" fill="black"/>
<path d="M63.4375 38.2812H41.5625C40.9577 38.2812 40.4688 38.7713 40.4688 39.375V56.875C40.4688 57.4788 40.9577 57.9688 41.5625 57.9688H63.4375C64.0423 57.9688 64.5312 57.4788 64.5312 56.875V39.375C64.5312 38.7713 64.0423 38.2812 63.4375 38.2812ZM62.3438 40.4688V42.6562H42.6562V40.4688H62.3438ZM42.6562 47.0312V44.8438H62.3438V47.0312H42.6562ZM62.3438 49.2188V51.4062H42.6562V49.2188H62.3438ZM42.6562 55.7812V53.5938H62.3438V55.7812H42.6562Z" fill="black"/>
<path d="M56.875 20.7812C52.6542 20.7812 49.2188 24.2156 49.2188 28.4375C49.2188 32.6594 52.6542 36.0938 56.875 36.0938C61.0958 36.0938 64.5312 32.6594 64.5312 28.4375C64.5312 24.2156 61.0958 20.7812 56.875 20.7812ZM56.875 33.9062C53.8595 33.9062 51.4062 31.453 51.4062 28.4375C51.4062 25.422 53.8595 22.9688 56.875 22.9688C59.8905 22.9688 62.3438 25.422 62.3438 28.4375C62.3438 31.453 59.8905 33.9062 56.875 33.9062Z" fill="black"/>
<path d="M56.875 25.1562C55.0659 25.1562 53.5938 26.6284 53.5938 28.4375C53.5938 30.2466 55.0659 31.7188 56.875 31.7188C58.6841 31.7188 60.1562 30.2466 60.1562 28.4375C60.1562 26.6284 58.6841 25.1562 56.875 25.1562ZM56.875 29.5312C56.2713 29.5312 55.7812 29.0402 55.7812 28.4375C55.7812 27.8348 56.2713 27.3438 56.875 27.3438C57.4787 27.3438 57.9688 27.8348 57.9688 28.4375C57.9688 29.0402 57.4787 29.5312 56.875 29.5312Z" fill="black"/>
<path d="M62.3438 14.2188H64.5312V16.4062H62.3438V14.2188Z" fill="black"/>
<path d="M57.9688 14.2188H60.1562V16.4062H57.9688V14.2188Z" fill="black"/>
<path d="M53.5938 14.2188H55.7812V16.4062H53.5938V14.2188Z" fill="black"/>
<path d="M49.2188 14.2188H51.4062V16.4062H49.2188V14.2188Z" fill="black"/>
<path d="M15.3125 18.5938H17.5V20.7812H15.3125V18.5938Z" fill="black"/>
</svg>
