<svg width="70" height="70" viewBox="0 0 70 70" fill="none" xmlns="http://www.w3.org/2000/svg">
<g clip-path="url(#clip0)">
<path d="M22.4784 36.6459C21.8545 36.4848 21.2179 36.86 21.0569 37.484C20.8958 38.1079 21.271 38.7445 21.8949 38.9055C26.414 40.0799 29.9407 43.6131 31.1067 48.1344C31.2389 48.6504 31.7038 49.0116 32.2366 49.0118V49.0117C32.5972 49.0118 32.9375 48.8453 33.1587 48.5606C33.3799 48.2758 33.457 47.9048 33.3675 47.5556C31.9902 42.2103 27.821 38.0333 22.4784 36.6459Z" fill="black"/>
<path d="M26.9771 32.0816C26.5734 31.9774 26.1449 32.0964 25.8528 32.3939C25.5607 32.6914 25.4496 33.1221 25.5612 33.5238C25.6727 33.9256 25.9901 34.2372 26.3938 34.3414C30.9129 35.5157 34.4395 39.0489 35.6055 43.5702C35.7378 44.0863 36.2027 44.4473 36.7354 44.4477C37.096 44.4478 37.4363 44.2812 37.6574 43.9965C37.8786 43.7116 37.9557 43.3407 37.8664 42.9914C36.4889 37.646 32.3197 33.469 26.9771 32.0816Z" fill="black"/>
<path d="M31.4761 27.5173C31.0725 27.4131 30.6439 27.5321 30.3518 27.8296C30.0598 28.127 29.9486 28.5578 30.0602 28.9594C30.1718 29.3611 30.4891 29.6727 30.8928 29.7769C35.4119 30.9512 38.9386 34.4845 40.1044 39.0058C40.2366 39.5218 40.7014 39.8829 41.2343 39.8834C41.5949 39.8834 41.9351 39.7167 42.1562 39.432C42.3773 39.1471 42.4544 38.7763 42.3653 38.4269C40.9879 33.0816 36.8187 28.9047 31.4761 27.5173Z" fill="black"/>
<path d="M35.9742 22.9529C35.5705 22.8487 35.142 22.9677 34.8499 23.2652C34.5578 23.5626 34.4466 23.9934 34.5582 24.395C34.6698 24.7966 34.9872 25.1083 35.3908 25.2125C39.91 26.3869 43.4366 29.9201 44.6026 34.4414C44.7348 34.9574 45.1996 35.3186 45.7325 35.319C46.0929 35.3188 46.4333 35.1521 46.6544 34.8674C46.8755 34.5828 46.9526 34.2118 46.8635 33.8624C45.4859 28.5173 41.3169 24.3403 35.9742 22.9529Z" fill="black"/>
<path d="M40.4742 18.3887C40.0705 18.2845 39.642 18.4035 39.3499 18.701C39.0578 18.9984 38.9466 19.4292 39.0582 19.8308C39.1698 20.2325 39.4872 20.5441 39.8908 20.6483C44.4099 21.8226 47.9366 25.3557 49.1026 29.8772C49.2348 30.3932 49.6996 30.7544 50.2325 30.7549C50.5929 30.7546 50.9331 30.5879 51.1542 30.3033C51.3753 30.0186 51.4525 29.6477 51.3634 29.2984C49.9859 23.9531 45.8167 19.7761 40.4742 18.3887Z" fill="black"/>
<path d="M44.9722 13.8243C44.5686 13.7201 44.14 13.8391 43.8479 14.1366C43.5559 14.434 43.4447 14.8648 43.5563 15.2664C43.6679 15.6681 43.9852 15.9797 44.3889 16.0839C48.908 17.2583 52.4347 20.7913 53.6006 25.3128C53.7329 25.8288 54.1976 26.1901 54.7305 26.1906C55.091 26.1902 55.431 26.0235 55.6521 25.7389C55.8732 25.4542 55.9505 25.0833 55.8615 24.734C54.484 19.3887 50.3148 15.2117 44.9722 13.8243Z" fill="black"/>
<path d="M49.4712 9.25998C49.0676 9.15578 48.639 9.27474 48.347 9.57229C48.0549 9.8697 47.9437 10.3004 48.0553 10.702C48.1669 11.1036 48.4842 11.4154 48.8879 11.5196C53.407 12.6939 56.9337 16.227 58.0997 20.7483C58.2319 21.2645 58.6967 21.6256 59.2294 21.6262C59.5898 21.6258 59.9299 21.459 60.1509 21.1743C60.3719 20.8896 60.4493 20.5187 60.3604 20.1695C58.983 14.8242 54.8138 10.6472 49.4712 9.25998Z" fill="black"/>
<path d="M64.8593 15.6052C63.482 10.26 59.3128 6.08287 53.9703 4.69565C53.5666 4.59145 53.1381 4.71041 52.846 5.00796C52.5539 5.30537 52.4427 5.7361 52.5543 6.1377C52.6659 6.53931 52.9833 6.85108 53.3869 6.95527C57.906 8.12959 61.4327 11.6628 62.5987 16.1841C62.7309 16.7003 63.1957 17.0614 63.7286 17.0621C64.089 17.0616 64.4289 16.8948 64.6501 16.6101C64.8707 16.3252 64.9481 15.9544 64.8593 15.6052Z" fill="black"/>
<path d="M65.557 4.4483C59.6388 -1.46994 50.0453 -1.47636 44.1191 4.43408L4.44638 44.1068C0.105846 48.4433 -1.19346 54.9682 1.15519 60.6365C3.50369 66.3048 9.03701 69.9988 15.1725 69.9945C19.1955 70.0017 23.0556 68.4055 25.8987 65.559L65.5714 25.8862C71.4818 19.9601 71.4754 10.3667 65.557 4.4483ZM20.0845 66.6915C15.2882 68.6782 9.76733 67.58 6.09642 63.9091C3.67995 61.507 2.32117 58.2403 2.32117 54.833C2.32117 51.4257 3.67995 48.159 6.09642 45.7569C9.76733 42.0859 15.2882 40.9878 20.0845 42.9745C24.8808 44.9612 28.0082 49.6415 28.0082 54.833C28.0082 60.0244 24.8808 64.7048 20.0845 66.6915ZM63.9214 24.2363L29.9381 58.2196C31.1175 53.1334 29.5905 47.7987 25.8987 44.1068C22.2068 40.415 16.8721 38.888 11.7859 40.0674L45.7691 6.08398C50.7818 1.07137 58.9087 1.07137 63.9214 6.08398C68.934 11.0966 68.934 19.2237 63.9214 24.2363Z" fill="black"/>
<path d="M11.1537 45.1307C7.22957 46.7561 4.6709 50.5854 4.6709 54.833C4.6776 60.63 9.37543 65.3279 15.1725 65.3346C19.4201 65.3346 23.2493 62.7759 24.8748 58.8517C26.5002 54.9276 25.6018 50.4107 22.5983 47.4072C19.5948 44.4038 15.0779 43.5053 11.1537 45.1307ZM15.1725 63.0008C10.6615 63.0008 7.00464 59.3439 7.00464 54.833C7.0097 50.3241 10.6637 46.6701 15.1725 46.6651C19.6836 46.6651 23.3404 50.3221 23.3404 54.833C23.3404 59.3439 19.6836 63.0008 15.1725 63.0008Z" fill="black"/>
</g>
<defs>
<clipPath id="clip0">
<rect width="70" height="70" fill="white"/>
</clipPath>
</defs>
</svg>
