<svg width="70" height="70" viewBox="0 0 70 70" fill="none" xmlns="http://www.w3.org/2000/svg">
<path d="M64.5312 14.2188H62.3438V12.0312C62.3438 11.7412 62.2285 11.463 62.0234 11.2579C61.8183 11.0527 61.5401 10.9375 61.25 10.9375H59.0625V8.75C59.0625 8.45992 58.9473 8.18172 58.7421 7.9766C58.537 7.77148 58.2588 7.65625 57.9688 7.65625H5.46875C5.17867 7.65625 4.90047 7.77148 4.69535 7.9766C4.49023 8.18172 4.375 8.45992 4.375 8.75V10.9375H2.1875C1.89742 10.9375 1.61922 11.0527 1.4141 11.2579C1.20898 11.463 1.09375 11.7412 1.09375 12.0312V18.5938C1.09375 18.8838 1.20898 19.162 1.4141 19.3671C1.61922 19.5723 1.89742 19.6875 2.1875 19.6875H4.375V21.875C4.375 22.1651 4.49023 22.4433 4.69535 22.6484C4.90047 22.8535 5.17867 22.9688 5.46875 22.9688H7.65625V30.625C7.65638 31.1499 7.7824 31.6671 8.02374 32.1332C8.26509 32.5994 8.61471 33.0008 9.04327 33.3039C9.47184 33.607 9.96684 33.8028 10.4867 33.875C11.0067 33.9473 11.5363 33.8937 12.0312 33.7189V37.1875C12.0312 38.0577 12.377 38.8923 12.9923 39.5077C13.6077 40.123 14.4423 40.4688 15.3125 40.4688C16.1827 40.4688 17.0173 40.123 17.6327 39.5077C18.248 38.8923 18.5938 38.0577 18.5938 37.1875V28.2502C19.0887 28.425 19.6183 28.4785 20.1383 28.4063C20.6582 28.3341 21.1532 28.1382 21.5817 27.8351C22.0103 27.5321 22.3599 27.1306 22.6013 26.6645C22.8426 26.1984 22.9686 25.6812 22.9688 25.1562V22.9688H57.9688C58.2588 22.9688 58.537 22.8535 58.7421 22.6484C58.9473 22.4433 59.0625 22.1651 59.0625 21.875V19.6875H61.25C61.5401 19.6875 61.8183 19.5723 62.0234 19.3671C62.2285 19.162 62.3438 18.8838 62.3438 18.5938V16.4062H64.5312C65.1112 16.407 65.6671 16.6377 66.0772 17.0478C66.4873 17.4579 66.718 18.0138 66.7188 18.5938V27.3438C66.718 27.9237 66.4873 28.4796 66.0772 28.8897C65.6671 29.2998 65.1112 29.5305 64.5312 29.5312H35C34.7099 29.5312 34.4317 29.6465 34.2266 29.8516C34.0215 30.0567 33.9062 30.3349 33.9062 30.625V35H32.8125C32.5224 35 32.2442 35.1152 32.0391 35.3204C31.834 35.5255 31.7188 35.8037 31.7188 36.0938V38.2812C31.4287 38.2812 31.1505 38.3965 30.9454 38.6016C30.7402 38.8067 30.625 39.0849 30.625 39.375V65.625C30.6262 66.4949 30.9722 67.3288 31.5873 67.9439C32.2024 68.559 33.0364 68.9051 33.9062 68.9062H36.0938C36.9636 68.9051 37.7976 68.559 38.4127 67.9439C39.0278 67.3288 39.3738 66.4949 39.375 65.625V39.375C39.375 39.0849 39.2598 38.8067 39.0546 38.6016C38.8495 38.3965 38.5713 38.2812 38.2812 38.2812V36.0938C38.2812 35.8037 38.166 35.5255 37.9609 35.3204C37.7558 35.1152 37.4776 35 37.1875 35H36.0938V31.7188H64.5312C65.6912 31.7174 66.8032 31.2561 67.6234 30.4359C68.4436 29.6157 68.9049 28.5037 68.9062 27.3438V18.5938C68.9049 17.4338 68.4436 16.3218 67.6234 15.5016C66.8032 14.6814 65.6912 14.2201 64.5312 14.2188ZM4.375 17.5H3.28125V13.125H4.375V17.5ZM56.875 20.7812H21.875C21.5849 20.7812 21.3067 20.8965 21.1016 21.1016C20.8965 21.3067 20.7812 21.5849 20.7812 21.875V25.1562C20.7812 25.4463 20.666 25.7245 20.4609 25.9296C20.2558 26.1348 19.9776 26.25 19.6875 26.25C19.3974 26.25 19.1192 26.1348 18.9141 25.9296C18.709 25.7245 18.5938 25.4463 18.5938 25.1562C18.5938 24.8662 18.4785 24.588 18.2734 24.3829C18.0683 24.1777 17.7901 24.0625 17.5 24.0625C17.2099 24.0625 16.9317 24.1777 16.7266 24.3829C16.5215 24.588 16.4062 24.8662 16.4062 25.1562V37.1875C16.4062 37.4776 16.291 37.7558 16.0859 37.9609C15.8808 38.166 15.6026 38.2812 15.3125 38.2812C15.0224 38.2812 14.7442 38.166 14.5391 37.9609C14.334 37.7558 14.2188 37.4776 14.2188 37.1875V30.625C14.2188 30.3349 14.1035 30.0567 13.8984 29.8516C13.6933 29.6465 13.4151 29.5312 13.125 29.5312C12.8349 29.5312 12.5567 29.6465 12.3516 29.8516C12.1465 30.0567 12.0312 30.3349 12.0312 30.625C12.0312 30.9151 11.916 31.1933 11.7109 31.3984C11.5058 31.6035 11.2276 31.7188 10.9375 31.7188C10.6474 31.7188 10.3692 31.6035 10.1641 31.3984C9.95898 31.1933 9.84375 30.9151 9.84375 30.625V21.875C9.84375 21.5849 9.72852 21.3067 9.5234 21.1016C9.31828 20.8965 9.04008 20.7812 8.75 20.7812H6.5625V9.84375H56.875V20.7812ZM60.1562 17.5H59.0625V13.125H60.1562V17.5ZM33.9062 37.1875H36.0938V38.2812H33.9062V37.1875ZM37.1875 40.4688V65.625C37.1871 65.915 37.0717 66.1929 36.8667 66.398C36.6617 66.603 36.3837 66.7184 36.0938 66.7188H33.9062C33.6163 66.7184 33.3383 66.603 33.1333 66.398C32.9283 66.1929 32.8129 65.915 32.8125 65.625V40.4688H37.1875Z" fill="black"/>
<path d="M13.125 20.7812C12.8349 20.7812 12.5567 20.8965 12.3516 21.1016C12.1465 21.3067 12.0312 21.5849 12.0312 21.875V27.3438C12.0312 27.6338 12.1465 27.912 12.3516 28.1171C12.5567 28.3223 12.8349 28.4375 13.125 28.4375C13.4151 28.4375 13.6933 28.3223 13.8984 28.1171C14.1035 27.912 14.2188 27.6338 14.2188 27.3438V21.875C14.2188 21.5849 14.1035 21.3067 13.8984 21.1016C13.6933 20.8965 13.4151 20.7812 13.125 20.7812Z" fill="black"/>
<path d="M17.5 19.6875C17.2099 19.6875 16.9317 19.8027 16.7266 20.0079C16.5215 20.213 16.4062 20.4912 16.4062 20.7812V21.875C16.4062 22.1651 16.5215 22.4433 16.7266 22.6484C16.9317 22.8535 17.2099 22.9688 17.5 22.9688C17.7901 22.9688 18.0683 22.8535 18.2734 22.6484C18.4785 22.4433 18.5938 22.1651 18.5938 21.875V20.7812C18.5938 20.4912 18.4785 20.213 18.2734 20.0079C18.0683 19.8027 17.7901 19.6875 17.5 19.6875Z" fill="black"/>
</svg>
