<svg width="70" height="70" viewBox="0 0 70 70" fill="none" xmlns="http://www.w3.org/2000/svg">
<g clip-path="url(#clip0)">
<path d="M64.1666 0H8.16662C3.65846 0.00519531 0.00519531 3.65846 0 8.16662V64.1666C0.00382813 67.3868 2.61324 69.9962 5.83338 70H33.8334C35.1214 69.9985 36.1653 68.9548 36.1668 67.6666V52.9833L52.9829 36.1666H67.6668C68.9548 36.1651 69.9986 35.1214 70.0001 33.8332V5.83324C69.9962 2.61324 67.3868 0.00382813 64.1666 0ZM33.8334 67.6666H21.4837L33.8334 55.3167V67.6666ZM67.6666 33.8334H55.3161L67.6666 21.4825V33.8334ZM67.6666 16.7338C67.6639 17.6615 67.2954 18.5507 66.6412 19.2084L51.6753 34.1748L51.6746 34.1754L34.1765 51.6739L34.1737 51.6768L19.209 66.6419C18.5537 67.3003 17.6623 67.6695 16.7333 67.6668H5.83338C3.90127 67.6647 2.33543 66.0989 2.33338 64.1668V8.16676C2.33721 4.94662 4.94662 2.33721 8.16676 2.33338H64.1668C66.0989 2.33543 67.6647 3.90127 67.6668 5.83338V16.7338H67.6666Z" fill="black"/>
<path d="M12.8334 7C9.6116 7 7 9.6116 7 12.8334C7.00383 16.0535 9.61324 18.6629 12.8334 18.6668C16.055 18.6668 18.6668 16.0552 18.6668 12.8334C18.6666 9.6116 16.055 7 12.8334 7ZM12.8334 16.3334C10.9003 16.3334 9.33338 14.7664 9.33338 12.8334C9.33543 10.9013 10.9013 9.33543 12.8334 9.33338C14.7663 9.33338 16.3334 10.9003 16.3334 12.8334C16.3334 14.7663 14.7663 16.3334 12.8334 16.3334Z" fill="black"/>
<path d="M12.8334 51.3334C9.61174 51.3334 7 53.9451 7 57.1668C7 60.3884 9.6116 63 12.8334 63C16.0535 62.9962 18.6629 60.3868 18.6668 57.1666C18.6666 53.945 16.055 51.3334 12.8334 51.3334ZM12.8334 60.6666C10.9003 60.6666 9.33338 59.0997 9.33338 57.1666C9.33338 55.2335 10.9003 53.6666 12.8334 53.6666C14.7663 53.6666 16.3334 55.2337 16.3334 57.1666C16.3312 59.0987 14.7655 60.6646 12.8334 60.6666Z" fill="black"/>
<path d="M57.1664 7C53.9447 7 51.333 9.6116 51.333 12.8334C51.3368 16.0535 53.9462 18.6629 57.1664 18.6668C60.388 18.6668 62.9998 16.0552 62.9998 12.8334C62.9998 9.6116 60.3882 7 57.1664 7ZM57.1664 16.3334C55.2335 16.3334 53.6664 14.7664 53.6664 12.8334C53.6684 10.9013 55.2343 9.33543 57.1664 9.33338C59.0993 9.33338 60.6664 10.9003 60.6664 12.8334C60.6664 14.7663 59.0995 16.3334 57.1664 16.3334Z" fill="black"/>
</g>
<defs>
<clipPath id="clip0">
<rect width="70" height="70" fill="white"/>
</clipPath>
</defs>
</svg>
