<svg width="70" height="70" viewBox="0 0 70 70" fill="none" xmlns="http://www.w3.org/2000/svg">
<g clip-path="url(#clip0)">
<path d="M5.83486 40.8328C6.47893 40.8328 7.00123 40.3105 7.00123 39.6659V13.9995C7.00123 13.3554 6.47893 12.8331 5.83486 12.8331C5.19027 12.8331 4.66797 13.3554 4.66797 13.9995V39.6659C4.66797 40.3105 5.19027 40.8328 5.83486 40.8328Z" fill="black"/>
<path d="M5.83488 10.5C6.47896 10.5 7.00127 9.97766 7.00127 9.33305V6.99976C7.00127 6.35568 6.47896 5.83337 5.83488 5.83337C5.19028 5.83337 4.66797 6.35568 4.66797 6.99976V9.33305C4.66797 9.97766 5.19028 10.5 5.83488 10.5Z" fill="black"/>
<path d="M35.0005 23.3331C32.4232 23.3331 30.334 25.4223 30.334 27.9996C30.334 30.577 32.4232 32.6662 35.0005 32.6662C37.5778 32.6662 39.667 30.577 39.667 27.9996C39.6643 25.4234 37.5767 23.3358 35.0005 23.3331ZM35.0005 30.3329C33.7118 30.3329 32.6672 29.2883 32.6672 27.9996C32.6672 26.711 33.7118 25.6664 35.0005 25.6664C36.2892 25.6664 37.3338 26.711 37.3338 27.9996C37.3327 29.2878 36.2886 30.3318 35.0005 30.3329Z" fill="black"/>
<path d="M47.8517 23.3288H47.8367L45.6925 23.3278C45.3427 22.532 44.9069 21.7769 44.3921 21.0762L45.4704 19.2055C46.0952 18.0872 45.708 16.6741 44.6004 16.0305L40.5721 13.708C40.0407 13.3934 39.4052 13.3053 38.8081 13.4634C38.2073 13.6209 37.6936 14.0108 37.3795 14.547L36.2997 16.4097C35.4356 16.3125 34.5624 16.3131 33.6983 16.4119L32.6254 14.5523C31.9798 13.4377 30.5539 13.0559 29.4377 13.6984L25.3971 16.0316C24.2825 16.6767 23.9001 18.1027 24.5421 19.2188L25.616 21.0778C25.0991 21.7774 24.6622 22.5331 24.314 23.3299L22.1586 23.3331C21.538 23.3374 20.9442 23.5879 20.5073 24.029C20.0742 24.4632 19.8328 25.0528 19.8376 25.6664L19.835 30.3244C19.8376 31.6125 20.8758 32.6581 22.1639 32.6699L24.3087 32.6715C24.4833 33.0694 24.6799 33.4571 24.8972 33.8336C25.114 34.2096 25.3517 34.5732 25.6086 34.923L24.5292 36.7949C23.9055 37.9137 24.2937 39.3252 25.4008 39.9682L29.4275 42.2897C29.9589 42.6048 30.595 42.6935 31.1926 42.5354C31.7934 42.3778 32.3077 41.988 32.6217 41.4518L33.701 39.5885C34.5656 39.6862 35.4383 39.6857 36.3029 39.5869L37.3753 41.4464C37.6839 41.9832 38.1945 42.3741 38.7926 42.5322C38.9913 42.5856 39.1964 42.6128 39.402 42.6128C39.81 42.6128 40.2105 42.5049 40.563 42.3004L44.6036 39.9671C45.7182 39.3215 46.1005 37.8961 45.4586 36.7799L44.3857 34.9209C44.9021 34.2213 45.339 33.4662 45.6867 32.6688L47.8421 32.6662C48.4632 32.6619 49.057 32.4114 49.4934 31.9698C49.9265 31.5356 50.1679 30.946 50.1636 30.3329L50.1657 25.6749C50.1647 24.3921 49.1345 23.3475 47.8517 23.3288ZM44.8888 30.3366C44.3927 30.3377 43.951 30.6528 43.7887 31.1217C43.41 32.1973 42.8348 33.1933 42.092 34.0579C41.7699 34.4339 41.7203 34.9716 41.9675 35.4005L43.4372 37.9463L39.3961 40.2801L37.9264 37.7337C37.7176 37.3727 37.3325 37.1506 36.916 37.1506C36.8439 37.1506 36.7723 37.157 36.7013 37.1703C35.5803 37.3802 34.4305 37.3807 33.309 37.1714C32.822 37.0769 32.328 37.3022 32.0802 37.7321L30.6046 40.2758L26.5576 37.9463L28.0257 35.4016C28.2735 34.9722 28.2227 34.4333 27.8996 34.0579C27.1605 33.1895 26.5859 32.1941 26.204 31.1196C26.0401 30.6523 25.5989 30.3388 25.1034 30.3388L22.1693 30.3302L22.1639 25.6664L25.1119 25.6621C25.6086 25.6616 26.0502 25.3465 26.2126 24.8771C26.5907 23.8015 27.1658 22.806 27.9087 21.9414C28.2307 21.5654 28.2809 21.0271 28.0337 20.5988L26.5634 18.053L30.6046 15.7192L32.0748 18.2655C32.321 18.6949 32.8129 18.9213 33.2994 18.829C34.4204 18.6175 35.5707 18.6169 36.6917 18.8274C37.1793 18.9213 37.6722 18.6965 37.9211 18.2671L39.3966 15.7224L43.4426 18.053L41.9745 20.5977C41.7272 21.0266 41.7774 21.5654 42.1005 21.9414C42.8402 22.8092 43.4153 23.8052 43.7977 24.8797C43.9617 25.347 44.4028 25.66 44.8984 25.6605L47.8325 25.6621L47.8367 30.3329L44.8888 30.3366Z" fill="black"/>
<path d="M69.9955 12.5794C69.8684 8.81063 66.7715 5.82317 63 5.83331H16.3343V2.33316C16.3327 1.04503 15.2892 0.000969423 14.0011 -9.86737e-05H7.00077C5.14282 -0.0049051 3.35963 0.731014 2.04587 2.04477C0.732112 3.35853 -0.00380648 5.14172 0.000999959 6.99968V57.1698C0.135046 60.9391 3.1396 63.9741 6.90785 64.1461C6.93989 64.1487 6.9682 64.1653 7.00077 64.1653H7.80612L9.5327 67.9501C9.61975 68.1376 9.72389 68.317 9.84245 68.4858C9.87983 68.5402 9.92148 68.5899 9.96154 68.6422C10.0486 68.7538 10.142 68.8607 10.2424 68.9611C10.2916 69.0107 10.3386 69.0604 10.3909 69.1068C10.5346 69.2361 10.6884 69.3541 10.8518 69.4583C10.8876 69.4812 10.9276 69.4972 10.965 69.5186C11.1055 69.6003 11.2518 69.6719 11.4024 69.7328C11.4334 69.7456 11.4606 69.7648 11.4916 69.7766C11.5306 69.791 11.5706 69.7963 11.6096 69.8091C11.7228 69.8465 11.8377 69.878 11.9541 69.9036C12.0262 69.9202 12.0967 69.9389 12.1688 69.9506C12.3172 69.9736 12.4662 69.987 12.6163 69.9907C12.6505 69.9918 12.6847 69.9998 12.7188 69.9998C13.2192 69.9992 13.7138 69.8914 14.1688 69.6826L26.265 64.1653H53.667V67.6655C53.6681 68.9536 54.7121 69.9976 56.0003 69.9987H63C66.8644 69.9944 69.9955 66.8628 69.9998 62.9989V12.8331C69.9998 12.8192 69.9923 12.808 69.9918 12.7941C69.9918 12.7225 69.9977 12.6515 69.9955 12.5794ZM3.69128 3.69926C4.57032 2.82342 5.76018 2.33209 7.00077 2.33316H14.0011V50.1658H7.00077C5.27847 50.1663 3.61704 50.8023 2.33426 51.9516V6.99968C2.33266 5.76335 2.82024 4.5767 3.69128 3.69926ZM42.7041 53.5276L40.2335 48.1113L47.7022 47.6189L47.9383 48.2442L42.7041 53.5276ZM37.8939 48.6037L38.8621 50.727L31.4319 54.1161C31.0463 54.2849 30.7814 54.6486 30.7392 55.0672C30.697 55.4859 30.884 55.895 31.2279 56.138C31.5718 56.3805 32.0199 56.4189 32.4001 56.2384L39.8303 52.8488L40.7986 54.9722L25.5622 61.9218L25.5408 61.9314L19.5696 64.6556L18.6008 62.5322L27.0933 58.6587C27.669 58.3858 27.9195 57.7006 27.6546 57.1207C27.3902 56.5407 26.7088 56.2806 26.1251 56.5364L17.6331 60.4093L16.6649 58.2865L37.8939 48.6037ZM13.2011 67.5597C12.6152 67.8267 11.9236 67.5688 11.6561 66.9829L9.71908 62.7367C9.45259 62.1503 9.71 61.4587 10.2959 61.1907L14.5426 59.2537L15.9942 62.4371V62.4382L15.9952 62.4398L17.4468 65.6227L13.2011 67.5597ZM31.3806 61.832L42.8285 56.6106C42.8872 56.5759 42.9428 56.5359 42.9935 56.491C43.0571 56.4568 43.1174 56.4163 43.1735 56.3703L49.5628 49.9196C50.2993 49.236 50.514 48.1572 50.0964 47.2434L49.8261 46.6517C49.4208 45.7497 48.4873 45.2044 47.5025 45.2942L38.3948 45.8939C38.2688 45.9046 38.1449 45.9361 38.0285 45.9874C38.0151 45.9927 38.0007 45.9911 37.9879 45.997L9.32762 59.0683C8.22161 59.5762 7.46059 60.6235 7.31853 61.832H7.28115C4.64348 61.8652 2.45495 59.8005 2.33426 57.1655V56.9957C2.41917 54.4819 4.48594 52.4905 7.00077 52.499H14.0011C15.2892 52.4979 16.3327 51.4539 16.3343 50.1658V8.16657H63C65.5149 8.15696 67.5816 10.149 67.6644 12.6627C67.6975 13.8873 67.2276 15.0718 66.3645 15.9412C65.4091 16.9308 64.0943 17.4932 62.7186 17.4996H56.0003C54.7121 17.5007 53.6681 18.5447 53.667 19.8329V61.832H31.3806ZM63 67.6655H56.0003V19.8329H62.7186C64.5477 19.8238 66.3095 19.1402 67.6665 17.9135V62.9989C67.6639 65.5752 65.5763 67.6628 63 67.6655Z" fill="black"/>
</g>
<defs>
<clipPath id="clip0">
<rect width="70" height="70" fill="white"/>
</clipPath>
</defs>
</svg>
