<svg width="70" height="70" viewBox="0 0 70 70" fill="none" xmlns="http://www.w3.org/2000/svg">
<g clip-path="url(#clip0)">
<path d="M69.9687 1.33771C69.9613 1.25623 69.945 1.1757 69.9203 1.09763C69.889 1.02162 69.8495 0.949155 69.8024 0.881753C69.7806 0.833765 69.7551 0.787417 69.7267 0.742983C69.7158 0.729858 69.6996 0.7248 69.6881 0.712222C69.6298 0.65439 69.5655 0.602847 69.4962 0.558687C69.4423 0.5148 69.3846 0.475972 69.3239 0.442612C69.2594 0.417593 69.1925 0.398315 69.1246 0.385327C69.0462 0.360444 68.9654 0.344175 68.8837 0.336655C68.8662 0.335835 68.8513 0.326538 68.8335 0.326538C68.7801 0.333237 68.7273 0.343901 68.6755 0.358394C68.5949 0.365776 68.5155 0.381772 68.4385 0.406245C68.3622 0.437554 68.2901 0.476929 68.2227 0.523823C68.1741 0.545835 68.1274 0.571401 68.0825 0.600112L0.723516 57.1191L0.409063 57.3875C0.396758 57.3979 0.392246 57.4129 0.380625 57.4237C0.32334 57.4826 0.272617 57.5474 0.229141 57.6172C0.185254 57.671 0.146426 57.7286 0.11293 57.7894C0.0892775 57.8529 0.0710939 57.9182 0.0586525 57.9848C0.0332228 58.0646 0.0166798 58.1471 0.00916027 58.2305C0.00820324 58.2462 1.13937e-07 58.2592 1.13937e-07 58.2751V68.5067C-0.000136605 68.8161 0.122774 69.1129 0.34166 69.3318C0.56041 69.5505 0.857227 69.6734 1.16676 69.6734H68.8334C69.1428 69.6736 69.4396 69.5507 69.6585 69.3318C69.8772 69.113 70.0001 68.8162 70.0001 68.5067V1.49343C69.9933 1.4408 69.9829 1.38884 69.9687 1.33771ZM67.6666 67.3401H2.33338V63.8401H67.6668V67.3401H67.6666ZM67.6666 61.5067H8.20941L10.9903 59.1733H67.6668V61.5067H67.6666ZM13.7707 56.8401L33.8334 40.0046V56.8401H13.7707ZM36.1666 56.8401V38.0467L37.8845 36.6053L38.5 37.2209V56.8401H36.1666ZM63 55.1179V56.8401H61.4186L39.6784 35.0999L41.4747 33.5927L63 55.1179ZM43.2686 32.0871L63 15.5298V51.8185L43.2686 32.0871ZM58.1191 56.8401H40.8334V39.5542L58.1191 56.8401ZM67.6666 56.8401H65.3332V13.5717L67.6666 11.6138V56.8401ZM67.6666 8.56726L34.1805 36.6677L34.1734 36.6738L9.74354 57.1746L9.73027 57.1858L4.58131 61.5067H2.33338V58.8193L67.6666 3.99566V8.56726Z" fill="black"/>
</g>
<defs>
<clipPath id="clip0">
<rect width="70" height="70" fill="white"/>
</clipPath>
</defs>
</svg>
